<svg width="19" height="18" viewBox="0 0 19 18" fill="none" xmlns="http://www.w3.org/2000/svg">
<g clip-path="url(#clip0_901_20794)">
<path d="M5.46875 8.09625C6.54875 10.2188 8.285 11.955 10.4113 13.035L12.0612 11.3813C12.2675 11.175 12.5638 11.115 12.8225 11.1975C13.6625 11.475 14.5662 11.625 15.5 11.625C15.9163 11.625 16.25 11.9587 16.25 12.375V15C16.25 15.4163 15.9163 15.75 15.5 15.75C8.4575 15.75 2.75 10.0425 2.75 3C2.75 2.58375 3.0875 2.25 3.5 2.25H6.125C6.54125 2.25 6.875 2.58375 6.875 3C6.875 3.93375 7.025 4.8375 7.3025 5.6775C7.385 5.93625 7.325 6.2325 7.11875 6.43875L5.46875 8.09625Z" fill="white"/>
</g>
<defs>
<clipPath id="clip0_901_20794">
<rect width="18" height="18" fill="white" transform="translate(0.5)"/>
</clipPath>
</defs>
</svg>
