<svg width="45" height="45" viewBox="0 0 45 45" fill="none" xmlns="http://www.w3.org/2000/svg">
<path d="M22.92 23.0799C22.675 23.301 22.3567 23.4234 22.0267 23.4234C21.6966 23.4234 21.3783 23.301 21.1333 23.0799L9.82666 12.7999C10.2703 12.496 10.7955 12.3333 11.3333 12.3333H32.6667C33.2045 12.3333 33.7296 12.496 34.1733 12.7999L22.92 23.0799Z" fill="white"/>
<path d="M35.3334 15.3467V29.6667C35.3334 30.7275 34.912 31.745 34.1618 32.4951C33.4117 33.2453 32.3943 33.6667 31.3334 33.6667H12.6667C11.6059 33.6667 10.5885 33.2453 9.83832 32.4951C9.08818 31.745 8.66675 30.7275 8.66675 29.6667V15.3467L20.2401 25.9067C20.7282 26.3306 21.3536 26.5628 22.0001 26.56C22.6546 26.5587 23.2858 26.3166 23.7734 25.88L35.3334 15.3467Z" fill="white"/>
</svg>
