<svg width="38" height="38" viewBox="0 0 38 38" fill="none" xmlns="http://www.w3.org/2000/svg">
<g clip-path="url(#clip0_904_22780)">
<path d="M34.8334 9.05673L27.558 2.95299L25.5234 5.37548L32.7988 11.4792L34.8334 9.05673ZM12.4767 5.36757L10.4422 2.94507L3.16675 9.04882L5.20133 11.4713L12.4767 5.36757ZM18.9922 6.3334C11.1151 6.3334 4.75008 12.7142 4.75008 20.5834C4.75008 28.4526 11.1151 34.8334 18.9922 34.8334C26.8692 34.8334 33.2501 28.4526 33.2501 20.5834C33.2501 12.7142 26.8692 6.3334 18.9922 6.3334ZM19.0001 31.6667C12.8805 31.6667 7.91675 26.703 7.91675 20.5834C7.91675 14.4638 12.8805 9.50007 19.0001 9.50007C25.1197 9.50007 30.0834 14.4638 30.0834 20.5834C30.0834 26.703 25.1276 31.6667 19.0001 31.6667ZM16.6805 22.998L13.3238 19.6413L11.6455 21.3197L16.6805 26.3547L26.1884 16.8467L24.5101 15.1684L16.6805 22.998Z" fill="white"/>
</g>
<defs>
<clipPath id="clip0_904_22780">
<rect width="38" height="38" fill="white"/>
</clipPath>
</defs>
</svg>
