<svg width="38" height="38" viewBox="0 0 38 38" fill="none" xmlns="http://www.w3.org/2000/svg">
<g clip-path="url(#clip0_906_22820)">
<path d="M20.0292 15.8333C18.723 12.1442 15.2159 9.5 11.0834 9.5C5.83462 9.5 1.58337 13.7512 1.58337 19C1.58337 24.2488 5.83462 28.5 11.0834 28.5C15.2159 28.5 18.723 25.8558 20.0292 22.1667H26.9167V28.5H33.25V22.1667H36.4167V15.8333H20.0292ZM11.0834 22.1667C9.33379 22.1667 7.91671 20.7496 7.91671 19C7.91671 17.2504 9.33379 15.8333 11.0834 15.8333C12.833 15.8333 14.25 17.2504 14.25 19C14.25 20.7496 12.833 22.1667 11.0834 22.1667Z" fill="white"/>
</g>
<defs>
<clipPath id="clip0_906_22820">
<rect width="38" height="38" fill="white"/>
</clipPath>
</defs>
</svg>
