<svg width="176" height="57" viewBox="0 0 176 57" fill="none" xmlns="http://www.w3.org/2000/svg">
<path d="M71.2846 36.1242H67.1654V20.1134H79.6374V23.3155H71.2846V36.1242Z" fill="white"/>
<path d="M86.8056 36.3529C86.0427 36.3529 85.2571 36.2767 84.4485 36.1242V33.0364H86.5081C86.9505 33.0364 87.2556 32.8611 87.4234 32.5103C87.4997 32.3579 87.5378 32.1977 87.5378 32.03C87.5378 31.847 87.4997 31.6869 87.4234 31.5497L81.1302 20.1134H85.7071L89.8263 28.2332L93.2589 20.1134H97.8358L92.0003 32.6933C91.4663 33.8979 90.8256 34.7976 90.078 35.3923C89.2542 36.0327 88.1634 36.3529 86.8056 36.3529Z" fill="white"/>
<path d="M101.157 20.1134H113.171V32.922H114.887V39.0977H110.997L110.768 36.1242H101.843L101.614 39.0977H97.7241V32.922H99.2115C99.654 32.4188 99.982 31.8547 100.196 31.2295C100.424 30.589 100.554 30.0096 100.585 29.4912L101.157 20.1134ZM109.052 32.922V23.3155H104.818L104.475 29.0337C104.429 29.9639 104.2 30.9016 103.788 31.847C103.621 32.2435 103.43 32.6018 103.216 32.922H109.052Z" fill="white"/>
<path d="M131.137 26.289H136.629C138.231 26.289 139.391 26.6549 140.108 27.3869C140.84 28.1035 141.206 29.2624 141.206 30.8635V31.5497C141.206 33.1508 140.84 34.3173 140.108 35.0492C139.391 35.7659 138.231 36.1242 136.629 36.1242H127.018V20.1134H139.719V23.3155H131.137V26.289ZM137.087 30.8635C137.087 29.9486 136.629 29.4912 135.714 29.4912H131.137V32.922H135.714C136.629 32.922 137.087 32.4646 137.087 31.5497V30.8635Z" fill="white"/>
<path d="M158.94 36.1242H154.821V26.289L149.329 36.1242H144.981V20.1134H149.1V29.9486L154.592 20.1134H158.94V36.1242Z" fill="white"/>
<path d="M171.194 36.1242H167.075V23.3155H162.269V20.1134H176V23.3155H171.194V36.1242Z" fill="white"/>
<path d="M26.8133 21.9163L15.038 28.0189C14.6149 28.2382 14.1097 27.9313 14.1097 27.4549V15.2497C14.1097 14.7733 14.6149 14.4664 15.038 14.6857L26.8133 20.7883C27.2707 21.0253 27.2707 21.6793 26.8133 21.9163Z" fill="#C63D3D"/>
<path fill-rule="evenodd" clip-rule="evenodd" d="M13.7919 15.2497C13.7919 14.5351 14.5496 14.0747 15.1843 14.4037L26.9596 20.5062C27.6457 20.8618 27.6457 21.8428 26.9596 22.1983L15.1843 28.3009C14.5496 28.6299 13.7919 28.1695 13.7919 27.4549V15.2497ZM14.8917 14.9677C14.6801 14.858 14.4276 15.0115 14.4276 15.2497V27.4549C14.4276 27.6931 14.6801 27.8465 14.8917 27.7369L26.667 21.6343C26.8957 21.5158 26.8957 21.1888 26.667 21.0703L14.8917 14.9677Z" fill="#251E34"/>
<path d="M13.0214 29.064L1.24613 35.1666C0.822984 35.3859 0.317838 35.079 0.317838 34.6026V22.3974C0.317838 21.921 0.822983 21.6141 1.24612 21.8334L13.0214 27.936C13.4788 28.173 13.4788 28.827 13.0214 29.064Z" fill="#C63D3D"/>
<path fill-rule="evenodd" clip-rule="evenodd" d="M0 22.3974C0 21.6828 0.757718 21.2224 1.39243 21.5514L13.1677 27.6539C13.8538 28.0095 13.8538 28.9905 13.1677 29.3461L1.39243 35.4486C0.757718 35.7776 0 35.3172 0 34.6026V22.3974ZM1.09982 22.1154C0.888248 22.0058 0.635675 22.1592 0.635675 22.3974V34.6026C0.635675 34.8408 0.888249 34.9942 1.09982 34.8846L12.8751 28.782C13.1038 28.6635 13.1038 28.3365 12.8751 28.218L1.09982 22.1154Z" fill="#251E34"/>
<path d="M26.8133 36.2117L15.038 42.3143C14.6149 42.5336 14.1097 42.2267 14.1097 41.7503V29.5451C14.1097 29.0687 14.6149 28.7618 15.038 28.9811L26.8133 35.0837C27.2707 35.3207 27.2707 35.9747 26.8133 36.2117Z" fill="#C63D3D"/>
<path fill-rule="evenodd" clip-rule="evenodd" d="M13.7919 29.5451C13.7919 28.8305 14.5496 28.3701 15.1843 28.6991L26.9596 34.8017C27.6457 35.1572 27.6457 36.1382 26.9596 36.4938L15.1843 42.5963C14.5496 42.9253 13.7919 42.4649 13.7919 41.7503V29.5451ZM14.8917 29.2631C14.6801 29.1535 14.4276 29.3069 14.4276 29.5451V41.7503C14.4276 41.9885 14.6801 42.1419 14.8917 42.0323L26.667 35.9297C26.8957 35.8112 26.8957 35.4842 26.667 35.3657L14.8917 29.2631Z" fill="#251E34"/>
<path d="M40.6051 43.3594L28.8299 49.462C28.4067 49.6813 27.9016 49.3744 27.9016 48.898V36.6928C27.9016 36.2164 28.4067 35.9095 28.8299 36.1288L40.6051 42.2314C41.0626 42.4684 41.0626 43.1224 40.6051 43.3594Z" fill="#C63D3D"/>
<path fill-rule="evenodd" clip-rule="evenodd" d="M27.5838 36.6928C27.5838 35.9782 28.3415 35.5178 28.9762 35.8468L40.7515 41.9494C41.4376 42.3049 41.4376 43.2859 40.7515 43.6415L28.9762 49.744C28.3415 50.073 27.5838 49.6126 27.5838 48.898V36.6928ZM28.6836 36.4108C28.472 36.3012 28.2194 36.4546 28.2194 36.6928V48.898C28.2194 49.1362 28.472 49.2897 28.6836 49.18L40.4588 43.0774C40.6875 42.9589 40.6875 42.6319 40.4588 42.5134L28.6836 36.4108Z" fill="#251E34"/>
<path d="M28.9899 50.5072L40.7652 56.6097C41.1883 56.829 41.6935 56.5221 41.6935 56.0457V43.8405C41.6935 43.3641 41.1883 43.0572 40.7652 43.2765L28.9899 49.3791C28.5325 49.6161 28.5325 50.2701 28.9899 50.5072Z" fill="#FE4B4B"/>
<path fill-rule="evenodd" clip-rule="evenodd" d="M42.0113 43.8405C42.0113 43.1259 41.2536 42.6655 40.6189 42.9945L28.8436 49.0971C28.1575 49.4526 28.1575 50.4336 28.8436 50.7892L40.6189 56.8917C41.2536 57.2207 42.0113 56.7603 42.0113 56.0457V43.8405ZM40.9115 43.5585C41.1231 43.4489 41.3756 43.6023 41.3756 43.8405V56.0457C41.3756 56.2839 41.1231 56.4374 40.9115 56.3277L29.1362 50.2251C28.9075 50.1066 28.9075 49.7796 29.1362 49.6611L40.9115 43.5585Z" fill="#251E34"/>
<path d="M26.8133 7.62092L15.038 13.7235C14.6149 13.9428 14.1097 13.6359 14.1097 13.1595V0.954306C14.1097 0.477906 14.6149 0.170975 15.038 0.39027L26.8133 6.49285C27.2707 6.72991 27.2707 7.38386 26.8133 7.62092Z" fill="#6730DC"/>
<path fill-rule="evenodd" clip-rule="evenodd" d="M13.7919 0.954306C13.7919 0.239707 14.5496 -0.220691 15.1843 0.108251L26.9596 6.21083C27.6457 6.56642 27.6457 7.54735 26.9596 7.90294L15.1843 14.0055C14.5496 14.3345 13.7919 13.8741 13.7919 13.1595V0.954306ZM14.8917 0.672288C14.6801 0.56264 14.4276 0.716106 14.4276 0.954306V13.1595C14.4276 13.3977 14.6801 13.5511 14.8917 13.4415L26.667 7.3389C26.8957 7.22037 26.8957 6.8934 26.667 6.77487L14.8917 0.672288Z" fill="#261E34"/>
<path d="M15.1981 14.7686L26.9734 20.8712C27.3965 21.0905 27.9017 20.7836 27.9017 20.3072V8.10201C27.9017 7.62561 27.3965 7.31868 26.9734 7.53797L15.1981 13.6406C14.7407 13.8776 14.7407 14.5316 15.1981 14.7686Z" fill="#844BFE"/>
<path fill-rule="evenodd" clip-rule="evenodd" d="M28.2195 8.10201C28.2195 7.38741 27.4618 6.92701 26.8271 7.25596L15.0518 13.3585C14.3657 13.7141 14.3657 14.6951 15.0518 15.0506L26.8271 21.1532C27.4618 21.4822 28.2195 21.0218 28.2195 20.3072V8.10201ZM27.1197 7.81999C27.3313 7.71035 27.5838 7.86381 27.5838 8.10201V20.3072C27.5838 20.5454 27.3313 20.6988 27.1197 20.5892L15.3444 14.4866C15.1157 14.3681 15.1157 14.0411 15.3444 13.9226L27.1197 7.81999Z" fill="#261E34"/>
<path d="M28.99 21.9163L40.7653 28.0189C41.1884 28.2382 41.6936 27.9313 41.6936 27.4549V15.2497C41.6936 14.7733 41.1884 14.4664 40.7653 14.6857L28.99 20.7883C28.5326 21.0253 28.5326 21.6793 28.99 21.9163Z" fill="#844BFE"/>
<path fill-rule="evenodd" clip-rule="evenodd" d="M42.0114 15.2497C42.0114 14.5351 41.2537 14.0747 40.619 14.4037L28.8437 20.5062C28.1576 20.8618 28.1576 21.8428 28.8437 22.1983L40.619 28.3009C41.2537 28.6299 42.0114 28.1695 42.0114 27.4549V15.2497ZM40.9116 14.9677C41.1231 14.858 41.3757 15.0115 41.3757 15.2497V27.4549C41.3757 27.6931 41.1231 27.8465 40.9116 27.7369L29.1363 21.6343C28.9076 21.5158 28.9076 21.1888 29.1363 21.0703L40.9116 14.9677Z" fill="#261E34"/>
<path d="M42.7819 29.064L54.5572 35.1666C54.9803 35.3859 55.4854 35.079 55.4854 34.6026V22.3974C55.4854 21.921 54.9803 21.6141 54.5572 21.8334L42.7819 27.936C42.3245 28.173 42.3245 28.827 42.7819 29.064Z" fill="#844BFE"/>
<path fill-rule="evenodd" clip-rule="evenodd" d="M55.8033 22.3974C55.8033 21.6828 55.0456 21.2224 54.4108 21.5514L42.6356 27.6539C41.9495 28.0095 41.9495 28.9905 42.6356 29.3461L54.4108 35.4486C55.0456 35.7776 55.8033 35.3172 55.8033 34.6026V22.3974ZM54.7035 22.1154C54.915 22.0058 55.1676 22.1592 55.1676 22.3974V34.6026C55.1676 34.8408 54.915 34.9942 54.7035 34.8846L42.9282 28.782C42.6995 28.6635 42.6995 28.3365 42.9282 28.218L54.7035 22.1154Z" fill="#261E34"/>
<path d="M40.6052 14.7686L28.83 20.8712C28.4068 21.0905 27.9017 20.7836 27.9017 20.3072V8.10201C27.9017 7.62561 28.4068 7.31868 28.83 7.53797L40.6052 13.6406C41.0626 13.8776 41.0626 14.5316 40.6052 14.7686Z" fill="#6730DC"/>
<path fill-rule="evenodd" clip-rule="evenodd" d="M27.5838 8.10201C27.5838 7.38741 28.3415 6.92701 28.9763 7.25596L40.7515 13.3585C41.4376 13.7141 41.4376 14.6951 40.7515 15.0506L28.9763 21.1532C28.3416 21.4822 27.5838 21.0218 27.5838 20.3072V8.10201ZM28.6837 7.81999C28.4721 7.71035 28.2195 7.86381 28.2195 8.10201V20.3072C28.2195 20.5454 28.4721 20.6988 28.6837 20.5892L40.4589 14.4866C40.6876 14.3681 40.6876 14.0411 40.4589 13.9226L28.6837 7.81999Z" fill="#261E34"/>
<path d="M53.9352 21.9117L42.6306 27.9957C42.2071 28.2236 41.6936 27.917 41.6936 27.4363V15.2683C41.6936 14.7876 42.2071 14.481 42.6306 14.7089L53.9352 20.7929C54.3809 21.0328 54.3809 21.6718 53.9352 21.9117Z" fill="#6730DC"/>
<path fill-rule="evenodd" clip-rule="evenodd" d="M41.3757 15.2683C41.3757 14.5472 42.146 14.0873 42.7813 14.4292L54.0859 20.5132C54.7545 20.873 54.7545 21.8316 54.0859 22.1914L42.7813 28.2754C42.146 28.6173 41.3757 28.1574 41.3757 27.4363V15.2683ZM42.4799 14.9886C42.2682 14.8746 42.0114 15.0279 42.0114 15.2683V27.4363C42.0114 27.6767 42.2682 27.8299 42.4799 27.716L53.7845 21.632C54.0074 21.5121 54.0074 21.1925 53.7845 21.0726L42.4799 14.9886Z" fill="#261E34"/>
<path d="M54.3971 36.2117L42.6218 42.3143C42.1987 42.5336 41.6936 42.2267 41.6936 41.7503V29.5451C41.6936 29.0687 42.1987 28.7618 42.6218 28.9811L54.3971 35.0837C54.8545 35.3207 54.8545 35.9747 54.3971 36.2117Z" fill="#6730DC"/>
<path fill-rule="evenodd" clip-rule="evenodd" d="M41.3757 29.5451C41.3757 28.8305 42.1334 28.3701 42.7681 28.6991L54.5434 34.8017C55.2295 35.1572 55.2295 36.1382 54.5434 36.4938L42.7681 42.5963C42.1334 42.9253 41.3757 42.4649 41.3757 41.7503V29.5451ZM42.4755 29.2631C42.264 29.1535 42.0114 29.3069 42.0114 29.5451V41.7503C42.0114 41.9885 42.264 42.1419 42.4755 42.0323L54.2508 35.9297C54.4795 35.8112 54.4795 35.4842 54.2508 35.3657L42.4755 29.2631Z" fill="#261E34"/>
<path d="M28.99 35.0837L40.7653 28.9811C41.1884 28.7618 41.6936 29.0687 41.6936 29.5451V41.7503C41.6936 42.2267 41.1884 42.5336 40.7653 42.3143L28.99 36.2117C28.5326 35.9747 28.5326 35.3207 28.99 35.0837Z" fill="#844BFE"/>
<path fill-rule="evenodd" clip-rule="evenodd" d="M42.0114 41.7503C42.0114 42.4649 41.2537 42.9253 40.619 42.5963L28.8437 36.4938C28.1576 36.1382 28.1576 35.1572 28.8437 34.8017L40.619 28.6991C41.2537 28.3701 42.0114 28.8305 42.0114 29.5451V41.7503ZM40.9116 42.0323C41.1231 42.1419 41.3757 41.9885 41.3757 41.7503V29.5451C41.3757 29.3069 41.1231 29.1535 40.9116 29.2631L29.1363 35.3657C28.9076 35.4842 28.9076 35.8112 29.1363 35.9297L40.9116 42.0323Z" fill="#261E34"/>
<path d="M15.1981 42.2314L26.9733 36.1288C27.3965 35.9095 27.9016 36.2164 27.9016 36.6928V48.898C27.9016 49.3744 27.3965 49.6813 26.9733 49.462L15.1981 43.3594C14.7406 43.1224 14.7406 42.4684 15.1981 42.2314Z" fill="#FE4B4B"/>
<path fill-rule="evenodd" clip-rule="evenodd" d="M28.2194 48.898C28.2194 49.6126 27.4617 50.073 26.827 49.744L15.0518 43.6415C14.3656 43.2859 14.3656 42.3049 15.0518 41.9494L26.827 35.8468C27.4617 35.5178 28.2194 35.9782 28.2194 36.6928V48.898ZM27.1196 49.18C27.3312 49.2897 27.5838 49.1362 27.5838 48.898V36.6928C27.5838 36.4546 27.3312 36.3012 27.1196 36.4108L15.3444 42.5134C15.1157 42.6319 15.1157 42.9589 15.3444 43.0774L27.1196 49.18Z" fill="#251E34"/>
<path d="M1.40618 35.0837L13.1814 28.9811C13.6046 28.7618 14.1097 29.0687 14.1097 29.5451V41.7503C14.1097 42.2267 13.6046 42.5336 13.1814 42.3143L1.40618 36.2117C0.948759 35.9747 0.948758 35.3207 1.40618 35.0837Z" fill="#FE4B4B"/>
<path fill-rule="evenodd" clip-rule="evenodd" d="M14.4276 41.7503C14.4276 42.4649 13.6698 42.9253 13.0351 42.5963L1.25987 36.4938C0.573746 36.1382 0.573742 35.1572 1.25987 34.8017L13.0351 28.6991C13.6698 28.3701 14.4276 28.8305 14.4276 29.5451V41.7503ZM13.3277 42.0323C13.5393 42.1419 13.7919 41.9885 13.7919 41.7503V29.5451C13.7919 29.3069 13.5393 29.1535 13.3277 29.2631L1.55248 35.3657C1.32377 35.4842 1.32377 35.8112 1.55248 35.9297L13.3277 42.0323Z" fill="#251E34"/>
<path d="M1.40618 20.7883L13.1814 14.6857C13.6046 14.4664 14.1097 14.7733 14.1097 15.2497V27.4549C14.1097 27.9313 13.6046 28.2382 13.1814 28.0189L1.40618 21.9163C0.948759 21.6793 0.948758 21.0253 1.40618 20.7883Z" fill="#FE4B4B"/>
<path fill-rule="evenodd" clip-rule="evenodd" d="M14.4276 27.4549C14.4276 28.1695 13.6698 28.6299 13.0351 28.3009L1.25987 22.1983C0.573746 21.8428 0.573742 20.8618 1.25987 20.5062L13.0351 14.4037C13.6698 14.0747 14.4276 14.5351 14.4276 15.2497V27.4549ZM13.3277 27.7369C13.5393 27.8465 13.7919 27.6931 13.7919 27.4549V15.2497C13.7919 15.0115 13.5393 14.858 13.3277 14.9677L1.55248 21.0703C1.32377 21.1888 1.32377 21.5158 1.55248 21.6343L13.3277 27.7369Z" fill="#251E34"/>
</svg>
