<svg width="45" height="45" viewBox="0 0 45 45" fill="none" xmlns="http://www.w3.org/2000/svg">
<g clip-path="url(#clip0_901_20802)">
<path d="M27.9562 24.5805C27.6301 24.418 26.0419 23.6413 25.7462 23.534C25.4504 23.4246 25.2338 23.3715 25.0171 23.6965C24.8037 24.0161 24.1818 24.7408 23.9944 24.9553C23.8048 25.1666 23.6163 25.1828 23.2946 25.0366C22.9696 24.8741 21.9263 24.5328 20.6913 23.4278C19.7293 22.5666 19.0837 21.5103 18.893 21.1853C18.7045 20.8603 18.8724 20.6816 19.0338 20.5191C19.1812 20.3728 19.3599 20.1453 19.5224 19.9525C19.6806 19.7564 19.7326 19.6264 19.8442 19.4152C19.9525 19.1877 19.8973 19.0089 19.8171 18.8475C19.7358 18.685 19.0891 17.0925 18.8182 16.4577C18.5583 15.825 18.2907 15.9052 18.0903 15.9052C17.9039 15.8889 17.6883 15.8889 17.4717 15.8889C17.255 15.8889 16.9051 15.9691 16.6083 16.2778C16.3125 16.6028 15.4762 17.3828 15.4762 18.9591C15.4762 20.5353 16.6353 22.0628 16.7968 22.2903C16.9582 22.5016 19.0772 25.7516 22.3218 27.1491C23.0953 27.4741 23.6976 27.6691 24.1678 27.8305C24.9413 28.0764 25.6465 28.0418 26.2044 27.9616C26.8263 27.863 28.1187 27.1805 28.3884 26.4167C28.6647 25.653 28.6647 25.0193 28.5834 24.873C28.5033 24.7268 28.2909 24.6455 27.9659 24.4993M22.0661 32.5625H22.0488C20.1313 32.5625 18.2311 32.0425 16.5725 31.0675L16.1825 30.8357L12.12 31.8919L13.2088 27.9432L12.9498 27.5369C11.8773 25.8296 11.3075 23.8633 11.3075 21.8386C11.3075 15.9398 16.1337 11.1298 22.078 11.1298C24.9532 11.1298 27.6518 12.2511 29.6841 14.2823C31.7153 16.2963 32.8355 18.9948 32.8355 21.8548C32.8312 27.7525 28.0038 32.5636 22.0726 32.5636M31.23 12.7364C28.76 10.3487 25.51 9 22.0488 9C14.9183 9 9.11267 14.7785 9.10942 21.8841C9.10942 24.1547 9.70417 26.3691 10.8373 28.3245L9 35L15.8629 33.2103C17.7544 34.2319 19.8821 34.7747 22.0488 34.7779H22.0553C29.189 34.7779 34.9968 28.9973 35 21.8906C35 18.4499 33.6567 15.2118 31.2138 12.7787" fill="white"/>
</g>
<defs>
<clipPath id="clip0_901_20802">
<rect width="26" height="26" fill="white" transform="translate(9 9)"/>
</clipPath>
</defs>
</svg>
