<svg width="18" height="18" viewBox="0 0 18 18" fill="none" xmlns="http://www.w3.org/2000/svg">
<g id="5402394_internet_link_hyperlink_url_web_icon 1">
<path id="Vector" d="M12.975 10.0126C12.7782 10.0117 12.5897 9.93362 12.45 9.79506C12.3103 9.65454 12.2319 9.46445 12.2319 9.26631C12.2319 9.06817 12.3103 8.87808 12.45 8.73756L14.04 7.14756C14.1795 7.00825 14.2901 6.84282 14.3656 6.66072C14.4411 6.47862 14.4799 6.28343 14.4799 6.08631C14.4799 5.88919 14.4411 5.694 14.3656 5.5119C14.2901 5.3298 14.1795 5.16437 14.04 5.02506L12.975 3.96006C12.6882 3.68895 12.3084 3.5379 11.9138 3.5379C11.5191 3.5379 11.1393 3.68895 10.8525 3.96006L9.2625 5.55006C9.11874 5.66509 8.93768 5.72321 8.75383 5.71336C8.56997 5.70351 8.39616 5.62638 8.26551 5.49665C8.13485 5.36692 8.05648 5.19367 8.04532 5.00989C8.03417 4.82611 8.091 4.64464 8.205 4.50006L9.795 2.91006C10.367 2.36446 11.1271 2.06006 11.9175 2.06006C12.708 2.06006 13.468 2.36446 14.04 2.91006L15.0975 3.96756C15.3764 4.24618 15.5977 4.57704 15.7487 4.94124C15.8997 5.30543 15.9774 5.69581 15.9774 6.09006C15.9774 6.48431 15.8997 6.87469 15.7487 7.23888C15.5977 7.60308 15.3764 7.93394 15.0975 8.21256L13.5 9.79506C13.3603 9.93362 13.1718 10.0117 12.975 10.0126Z" fill="#FE4B4B"/>
<path id="Vector_2" d="M6.08232 15.975C5.68824 15.9753 5.29796 15.898 4.93377 15.7474C4.56959 15.5968 4.23863 15.376 3.95982 15.0975L2.90232 14.04C2.62339 13.7614 2.40211 13.4305 2.25114 13.0663C2.10017 12.7021 2.02246 12.3117 2.02246 11.9175C2.02246 11.5233 2.10017 11.1329 2.25114 10.7687C2.40211 10.4045 2.62339 10.0736 2.90232 9.795L4.49982 8.205C4.6444 8.091 4.82587 8.03417 5.00965 8.04532C5.19343 8.05648 5.36668 8.13485 5.49641 8.26551C5.62614 8.39616 5.70327 8.56997 5.71312 8.75383C5.72297 8.93768 5.66485 9.11874 5.54982 9.2625L3.95982 10.8525C3.82036 10.9918 3.70972 11.1572 3.63423 11.3393C3.55874 11.5214 3.51989 11.7166 3.51989 11.9138C3.51989 12.1109 3.55874 12.3061 3.63423 12.4882C3.70972 12.6703 3.82036 12.8357 3.95982 12.975L5.02482 14.04C5.31166 14.3111 5.69138 14.4622 6.08607 14.4622C6.48076 14.4622 6.86048 14.3111 7.14732 14.04L8.73732 12.45C8.80277 12.367 8.88502 12.2988 8.97868 12.2498C9.07235 12.2008 9.17531 12.1722 9.28082 12.1658C9.38632 12.1594 9.49199 12.1753 9.59089 12.2126C9.68979 12.2499 9.7797 12.3077 9.8547 12.3822C9.92971 12.4566 9.98813 12.5461 10.0261 12.6448C10.0641 12.7434 10.0808 12.849 10.0752 12.9545C10.0695 13.06 10.0416 13.1632 9.99332 13.2572C9.945 13.3512 9.87736 13.434 9.79482 13.5L8.20482 15.09C7.92662 15.3699 7.59595 15.5921 7.23174 15.7439C6.86752 15.8958 6.47693 15.9743 6.08232 15.975Z" fill="#FE4B4B"/>
<path id="Vector_3" d="M6.61519 12.1351C6.51648 12.1357 6.41864 12.1167 6.32726 12.0794C6.23588 12.0421 6.15277 11.9871 6.08269 11.9176C6.01239 11.8479 5.9566 11.7649 5.91852 11.6735C5.88044 11.5821 5.86084 11.4841 5.86084 11.3851C5.86084 11.2861 5.88044 11.1881 5.91852 11.0967C5.9566 11.0053 6.01239 10.9223 6.08269 10.8526L10.8602 6.0826C11.0007 5.94291 11.1908 5.8645 11.3889 5.8645C11.5871 5.8645 11.7772 5.94291 11.9177 6.0826C11.988 6.15232 12.0438 6.23527 12.0819 6.32666C12.1199 6.41806 12.1395 6.51609 12.1395 6.6151C12.1395 6.71411 12.1199 6.81213 12.0819 6.90353C12.0438 6.99492 11.988 7.07787 11.9177 7.1476L7.14019 11.9176C7.00049 12.0562 6.81194 12.1343 6.61519 12.1351Z" fill="#FE4B4B"/>
</g>
</svg>
