<svg width="38" height="38" viewBox="0 0 38 38" fill="none" xmlns="http://www.w3.org/2000/svg">
<g clip-path="url(#clip0_904_22814)">
<path d="M26.125 4.75C23.37 4.75 20.7258 6.0325 19 8.05125C17.2741 6.0325 14.63 4.75 11.875 4.75C6.99038 4.75 3.16663 8.57375 3.16663 13.4583C3.16663 19.4354 8.54996 24.32 16.7041 31.7221L19 33.8042L21.2958 31.7221C29.45 24.32 34.8333 19.4354 34.8333 13.4583C34.8333 8.57375 31.0095 4.75 26.125 4.75ZM19.1662 29.3787L19 29.5292L18.8337 29.3787C11.305 22.5467 6.33329 18.0342 6.33329 13.4583C6.33329 10.2996 8.71621 7.91667 11.875 7.91667C14.3133 7.91667 16.6883 9.49208 17.5195 11.6533H20.4725C21.3116 9.49208 23.6866 7.91667 26.125 7.91667C29.2837 7.91667 31.6666 10.2996 31.6666 13.4583C31.6666 18.0342 26.695 22.5467 19.1662 29.3787Z" fill="white"/>
</g>
<defs>
<clipPath id="clip0_904_22814">
<rect width="38" height="38" fill="white"/>
</clipPath>
</defs>
</svg>
