<svg width="93" height="94" viewBox="0 0 93 94" fill="none" xmlns="http://www.w3.org/2000/svg">
<path d="M44.3035 36.1427L24.8473 46.2066C24.1481 46.5683 23.3135 46.0621 23.3135 45.2765V25.1487C23.3135 24.363 24.1481 23.8568 24.8473 24.2185L44.3035 34.2824C45.0593 34.6733 45.0593 35.7518 44.3035 36.1427Z" fill="#C63D3D"/>
<path fill-rule="evenodd" clip-rule="evenodd" d="M22.7883 25.1487C22.7883 23.9702 24.0403 23.2109 25.089 23.7534L44.5453 33.8173C45.6789 34.4037 45.679 36.0214 44.5453 36.6078L25.089 46.6717C24.0403 47.2142 22.7883 46.4549 22.7883 45.2765V25.1487ZM24.6055 24.6836C24.256 24.5027 23.8386 24.7558 23.8386 25.1487V45.2765C23.8386 45.6693 24.256 45.9224 24.6055 45.7415L44.0618 35.6776C44.4397 35.4822 44.4397 34.9429 44.0618 34.7475L24.6055 24.6836Z" fill="#251E34"/>
<path d="M21.5152 47.9302L2.05897 57.9941C1.35982 58.3557 0.525163 57.8495 0.525163 57.0639V36.9361C0.525163 36.1505 1.35981 35.6443 2.05897 36.0059L21.5152 46.0698C22.271 46.4608 22.271 47.5392 21.5152 47.9302Z" fill="#C63D3D"/>
<path fill-rule="evenodd" clip-rule="evenodd" d="M0 36.9361C0 35.7576 1.25198 34.9984 2.30071 35.5408L21.757 45.6048C22.8906 46.1912 22.8906 47.8088 21.757 48.3952L2.30071 58.4591C1.25198 59.0016 0 58.2424 0 57.0639V36.9361ZM1.81723 36.471C1.46765 36.2902 1.05033 36.5433 1.05033 36.9361V57.0639C1.05033 57.4567 1.46765 57.7098 1.81723 57.529L21.2735 47.4651C21.6514 47.2696 21.6514 46.7304 21.2735 46.5349L1.81723 36.471Z" fill="#251E34"/>
<path d="M44.3035 59.7176L24.8473 69.7815C24.1481 70.1432 23.3135 69.637 23.3135 68.8513V48.7235C23.3135 47.9379 24.1481 47.4317 24.8473 47.7934L44.3035 57.8573C45.0593 58.2482 45.0593 59.3267 44.3035 59.7176Z" fill="#C63D3D"/>
<path fill-rule="evenodd" clip-rule="evenodd" d="M22.7883 48.7235C22.7883 47.5451 24.0403 46.7858 25.089 47.3283L44.5453 57.3922C45.6789 57.9786 45.679 59.5963 44.5453 60.1827L25.089 70.2466C24.0403 70.7891 22.7883 70.0298 22.7883 68.8513V48.7235ZM24.6055 48.2585C24.256 48.0776 23.8386 48.3307 23.8386 48.7235V68.8513C23.8386 69.2442 24.256 69.4973 24.6055 69.3164L44.0618 59.2525C44.4397 59.0571 44.4397 58.5178 44.0618 58.3224L24.6055 48.2585Z" fill="#251E34"/>
<path d="M67.0918 71.5051L47.6356 81.569C46.9364 81.9306 46.1018 81.4244 46.1018 80.6388V60.511C46.1018 59.7253 46.9364 59.2192 47.6356 59.5808L67.0918 69.6447C67.8476 70.0357 67.8476 71.1141 67.0918 71.5051Z" fill="#C63D3D"/>
<path fill-rule="evenodd" clip-rule="evenodd" d="M45.5766 60.511C45.5766 59.3325 46.8286 58.5733 47.8773 59.1157L67.3336 69.1796C68.4673 69.766 68.4673 71.3837 67.3336 71.9701L47.8773 82.034C46.8286 82.5765 45.5766 81.8172 45.5766 80.6388V60.511ZM47.3938 60.0459C47.0443 59.8651 46.6269 60.1182 46.6269 60.511V80.6388C46.6269 81.0316 47.0443 81.2847 47.3939 81.1039L66.8501 71.04C67.228 70.8445 67.228 70.3053 66.8501 70.1098L47.3938 60.0459Z" fill="#251E34"/>
<path d="M47.9 83.2925L67.3563 93.3564C68.0554 93.718 68.8901 93.2119 68.8901 92.4262V72.2984C68.8901 71.5128 68.0554 71.0066 67.3563 71.3683L47.9 81.4322C47.1443 81.8231 47.1443 82.9016 47.9 83.2925Z" fill="#FE4B4B"/>
<path fill-rule="evenodd" clip-rule="evenodd" d="M69.4153 72.2984C69.4153 71.12 68.1633 70.3607 67.1145 70.9032L47.6583 80.9671C46.5246 81.5535 46.5246 83.1712 47.6583 83.7576L67.1145 93.8215C68.1633 94.3639 69.4153 93.6047 69.4153 92.4262V72.2984ZM67.598 71.8333C67.9476 71.6525 68.3649 71.9056 68.3649 72.2984V92.4262C68.3649 92.8191 67.9476 93.0721 67.598 92.8913L48.1418 82.8274C47.7639 82.6319 47.7639 82.0927 48.1418 81.8972L67.598 71.8333Z" fill="#251E34"/>
<path d="M44.3035 12.5678L24.8473 22.6317C24.1481 22.9934 23.3135 22.4872 23.3135 21.7016V1.57377C23.3135 0.788126 24.1481 0.281958 24.8473 0.643602L44.3035 10.7075C45.0593 11.0984 45.0593 12.1769 44.3035 12.5678Z" fill="#6730DC"/>
<path fill-rule="evenodd" clip-rule="evenodd" d="M22.7883 1.57377C22.7883 0.395307 24.0403 -0.363947 25.089 0.17852L44.5453 10.2424C45.6789 10.8288 45.679 12.4465 44.5453 13.0329L25.089 23.0968C24.0403 23.6393 22.7883 22.88 22.7883 21.7016V1.57377ZM24.6055 1.10869C24.256 0.927863 23.8386 1.18095 23.8386 1.57377V21.7016C23.8386 22.0944 24.256 22.3475 24.6055 22.1667L44.0618 12.1028C44.4397 11.9073 44.4397 11.3681 44.0618 11.1726L24.6055 1.10869Z" fill="#261E34"/>
<path d="M25.1118 24.3553L44.5681 34.4192C45.2672 34.7808 46.1019 34.2747 46.1019 33.489V13.3612C46.1019 12.5756 45.2672 12.0694 44.5681 12.431L25.1118 22.4949C24.3561 22.8859 24.3561 23.9643 25.1118 24.3553Z" fill="#844BFE"/>
<path fill-rule="evenodd" clip-rule="evenodd" d="M46.6271 13.3612C46.6271 12.1827 45.3751 11.4235 44.3264 11.966L24.8701 22.0299C23.7364 22.6163 23.7364 24.2339 24.8701 24.8204L44.3263 34.8843C45.3751 35.4267 46.6271 34.6675 46.6271 33.489V13.3612ZM44.8098 12.8961C45.1594 12.7153 45.5767 12.9684 45.5767 13.3612V33.489C45.5767 33.8818 45.1594 34.1349 44.8098 33.9541L25.3536 23.8902C24.9757 23.6947 24.9757 23.1555 25.3536 22.96L44.8098 12.8961Z" fill="#261E34"/>
<path d="M47.9002 36.1427L67.3564 46.2066C68.0556 46.5683 68.8902 46.0621 68.8902 45.2765V25.1487C68.8902 24.363 68.0556 23.8568 67.3564 24.2185L47.9002 34.2824C47.1444 34.6733 47.1444 35.7518 47.9002 36.1427Z" fill="#844BFE"/>
<path fill-rule="evenodd" clip-rule="evenodd" d="M69.4154 25.1487C69.4154 23.9702 68.1634 23.2109 67.1147 23.7534L47.6584 33.8173C46.5247 34.4037 46.5247 36.0214 47.6584 36.6078L67.1147 46.6717C68.1634 47.2142 69.4154 46.4549 69.4154 45.2765V25.1487ZM67.5982 24.6836C67.9477 24.5027 68.3651 24.7558 68.3651 25.1487V45.2765C68.3651 45.6693 67.9477 45.9224 67.5981 45.7415L48.1419 35.6776C47.764 35.4822 47.764 34.9429 48.1419 34.7475L67.5982 24.6836Z" fill="#261E34"/>
<path d="M70.6885 47.9302L90.1447 57.9941C90.8439 58.3557 91.6785 57.8495 91.6785 57.0639V36.9361C91.6785 36.1505 90.8439 35.6443 90.1447 36.0059L70.6885 46.0698C69.9327 46.4608 69.9327 47.5392 70.6885 47.9302Z" fill="#844BFE"/>
<path fill-rule="evenodd" clip-rule="evenodd" d="M92.2037 36.9361C92.2037 35.7576 90.9517 34.9984 89.903 35.5408L70.4467 45.6048C69.313 46.1912 69.313 47.8088 70.4467 48.3952L89.903 58.4591C90.9517 59.0016 92.2037 58.2424 92.2037 57.0639V36.9361ZM90.3865 36.471C90.736 36.2902 91.1534 36.5433 91.1534 36.9361V57.0639C91.1534 57.4567 90.736 57.7098 90.3865 57.529L70.9302 47.4651C70.5523 47.2696 70.5523 46.7304 70.9302 46.5349L90.3865 36.471Z" fill="#261E34"/>
<path d="M67.0919 24.3553L47.6357 34.4192C46.9365 34.7808 46.1019 34.2747 46.1019 33.489V13.3612C46.1019 12.5756 46.9365 12.0694 47.6357 12.431L67.0919 22.4949C67.8477 22.8859 67.8477 23.9643 67.0919 24.3553Z" fill="#6730DC"/>
<path fill-rule="evenodd" clip-rule="evenodd" d="M45.5767 13.3612C45.5767 12.1827 46.8287 11.4235 47.8774 11.966L67.3337 22.0299C68.4674 22.6163 68.4674 24.2339 67.3337 24.8204L47.8774 34.8843C46.8287 35.4267 45.5767 34.6675 45.5767 33.489V13.3612ZM47.394 12.8961C47.0444 12.7153 46.6271 12.9684 46.6271 13.3612V33.489C46.6271 33.8818 47.0444 34.1349 47.394 33.9541L66.8502 23.8902C67.2281 23.6947 67.2281 23.1555 66.8502 22.96L47.394 12.8961Z" fill="#261E34"/>
<path d="M89.1171 36.1351L70.4385 46.1683C69.7387 46.5442 68.8902 46.0386 68.8902 45.2458V25.1793C68.8902 24.3865 69.7387 23.8809 70.4385 24.2568L89.1171 34.29C89.8536 34.6856 89.8535 35.7395 89.1171 36.1351Z" fill="#6730DC"/>
<path fill-rule="evenodd" clip-rule="evenodd" d="M68.3651 25.1793C68.3651 23.9901 69.6378 23.2317 70.6875 23.7955L89.366 33.8288C90.4708 34.4222 90.4708 36.003 89.366 36.5964L70.6875 46.6296C69.6378 47.1934 68.3651 46.435 68.3651 45.2458V25.1793ZM70.1895 24.718C69.8396 24.5301 69.4154 24.7829 69.4154 25.1793V45.2458C69.4154 45.6422 69.8396 45.895 70.1895 45.7071L88.8681 35.6738C89.2363 35.476 89.2363 34.9491 88.8681 34.7513L70.1895 24.718Z" fill="#261E34"/>
<path d="M89.8803 59.7176L70.424 69.7815C69.7249 70.1432 68.8902 69.637 68.8902 68.8513V48.7235C68.8902 47.9379 69.7249 47.4317 70.424 47.7934L89.8803 57.8573C90.636 58.2482 90.636 59.3267 89.8803 59.7176Z" fill="#6730DC"/>
<path fill-rule="evenodd" clip-rule="evenodd" d="M68.3651 48.7235C68.3651 47.5451 69.617 46.7858 70.6658 47.3283L90.122 57.3922C91.2557 57.9786 91.2557 59.5963 90.122 60.1827L70.6658 70.2466C69.617 70.7891 68.3651 70.0298 68.3651 68.8513V48.7235ZM70.1823 48.2585C69.8327 48.0776 69.4154 48.3307 69.4154 48.7235V68.8513C69.4154 69.2442 69.8327 69.4973 70.1823 69.3164L89.6385 59.2525C90.0164 59.0571 90.0164 58.5178 89.6385 58.3224L70.1823 48.2585Z" fill="#261E34"/>
<path d="M47.9002 57.8573L67.3564 47.7934C68.0556 47.4317 68.8902 47.9379 68.8902 48.7235V68.8513C68.8902 69.637 68.0556 70.1432 67.3564 69.7815L47.9002 59.7176C47.1444 59.3267 47.1444 58.2482 47.9002 57.8573Z" fill="#844BFE"/>
<path fill-rule="evenodd" clip-rule="evenodd" d="M69.4154 68.8513C69.4154 70.0298 68.1634 70.7891 67.1147 70.2466L47.6584 60.1827C46.5247 59.5963 46.5247 57.9786 47.6584 57.3922L67.1147 47.3283C68.1634 46.7858 69.4154 47.5451 69.4154 48.7235V68.8513ZM67.5982 69.3164C67.9477 69.4973 68.3651 69.2442 68.3651 68.8513V48.7235C68.3651 48.3307 67.9477 48.0776 67.5981 48.2585L48.1419 58.3224C47.764 58.5178 47.764 59.0571 48.1419 59.2525L67.5982 69.3164Z" fill="#261E34"/>
<path d="M25.1117 69.6447L44.568 59.5808C45.2671 59.2192 46.1018 59.7253 46.1018 60.511V80.6388C46.1018 81.4244 45.2671 81.9306 44.568 81.569L25.1117 71.5051C24.3559 71.1141 24.3559 70.0357 25.1117 69.6447Z" fill="#FE4B4B"/>
<path fill-rule="evenodd" clip-rule="evenodd" d="M46.6269 80.6388C46.6269 81.8172 45.375 82.5765 44.3262 82.034L24.87 71.9701C23.7363 71.3837 23.7363 69.766 24.87 69.1796L44.3262 59.1157C45.375 58.5733 46.6269 59.3325 46.6269 60.511V80.6388ZM44.8097 81.1039C45.1593 81.2847 45.5766 81.0316 45.5766 80.6388V60.511C45.5766 60.1182 45.1593 59.8651 44.8097 60.0459L25.3535 70.1098C24.9756 70.3053 24.9756 70.8445 25.3535 71.04L44.8097 81.1039Z" fill="#251E34"/>
<path d="M2.32342 57.8573L21.7797 47.7934C22.4788 47.4317 23.3135 47.9379 23.3135 48.7235V68.8513C23.3135 69.637 22.4788 70.1432 21.7797 69.7815L2.32342 59.7176C1.56763 59.3267 1.56763 58.2482 2.32342 57.8573Z" fill="#FE4B4B"/>
<path fill-rule="evenodd" clip-rule="evenodd" d="M23.8386 68.8513C23.8386 70.0298 22.5867 70.7891 21.5379 70.2466L2.08168 60.1827C0.947999 59.5963 0.947993 57.9786 2.08168 57.3922L21.5379 47.3283C22.5867 46.7858 23.8386 47.5451 23.8386 48.7235V68.8513ZM22.0214 69.3164C22.371 69.4973 22.7883 69.2442 22.7883 68.8513V48.7235C22.7883 48.3307 22.371 48.0776 22.0214 48.2585L2.56516 58.3224C2.18727 58.5178 2.18727 59.0571 2.56516 59.2525L22.0214 69.3164Z" fill="#251E34"/>
<path d="M2.32342 34.2824L21.7797 24.2185C22.4788 23.8568 23.3135 24.363 23.3135 25.1487V45.2765C23.3135 46.0621 22.4788 46.5683 21.7797 46.2066L2.32342 36.1427C1.56763 35.7518 1.56763 34.6733 2.32342 34.2824Z" fill="#FE4B4B"/>
<path fill-rule="evenodd" clip-rule="evenodd" d="M23.8386 45.2765C23.8386 46.4549 22.5867 47.2142 21.5379 46.6717L2.08168 36.6078C0.947999 36.0214 0.947993 34.4037 2.08168 33.8173L21.5379 23.7534C22.5867 23.2109 23.8386 23.9702 23.8386 25.1487V45.2765ZM22.0214 45.7415C22.371 45.9224 22.7883 45.6693 22.7883 45.2765V25.1487C22.7883 24.7558 22.371 24.5027 22.0214 24.6836L2.56516 34.7475C2.18727 34.9429 2.18727 35.4822 2.56516 35.6776L22.0214 45.7415Z" fill="#251E34"/>
</svg>
