<svg width="568" height="568" viewBox="0 0 568 568" fill="none" xmlns="http://www.w3.org/2000/svg">
<path d="M525.161 392.215L524.003 391.204C514.244 382.718 500.669 380.072 488.741 384.741C487.208 385.343 485.719 386.047 484.288 386.876C473.973 392.783 467.021 404.234 466.464 416.242C466.135 423.296 467.805 430.771 464.942 437.201C461.227 445.573 451.446 448.925 442.711 451.424C433.963 453.923 424.194 457.308 420.513 465.692C418.207 470.94 418.923 477.131 420.967 482.527C426.386 496.796 440.654 506.542 455.581 508.883C470.508 511.223 485.844 506.951 499.022 499.602C517.482 489.309 532.739 472.394 538.623 451.912C544.508 431.43 540.009 407.54 525.161 392.215Z" fill="#FF0000" fill-opacity="0.16"/>
<path d="M466.294 73.9082L464.851 74.4307C452.707 78.8498 443.801 89.4373 442.097 102.138C441.881 103.774 441.779 105.421 441.802 107.068C441.972 118.951 448.618 130.583 458.842 136.899C464.851 140.614 472.19 142.772 476.427 148.384C481.948 155.689 480.142 165.867 478.086 174.728C476.029 183.589 474.246 193.779 479.801 201.061C483.277 205.616 489.037 208.002 494.739 208.82C509.848 211.001 525.286 203.242 534.579 191.314C543.871 179.386 547.563 163.902 547.529 148.827C547.484 127.698 540.077 106.148 525.025 91.0731C509.962 75.9984 486.89 68.3531 466.294 73.9082Z" fill="#FF0000" fill-opacity="0.16"/>
<path d="M46.7917 424.148L47.5869 422.842C54.2893 411.789 66.4104 405.132 79.2018 405.938C80.849 406.04 82.4848 406.268 84.098 406.608C95.7192 409.096 105.83 417.889 110.021 429.135C112.487 435.758 113.18 443.381 117.849 448.629C123.937 455.468 134.275 455.684 143.363 455.4C152.451 455.116 162.789 455.354 168.855 462.227C172.649 466.521 173.853 472.644 173.547 478.404C172.74 493.649 162.118 507.281 148.6 514.051C135.093 520.822 119.189 521.435 104.398 518.448C83.689 514.267 63.9908 502.805 52.1537 485.095C40.3165 467.396 37.3175 443.267 46.7917 424.148Z" fill="#FF0000" fill-opacity="0.16"/>
<path d="M536.384 332.101C540.043 316.771 530.582 301.377 515.252 297.718C499.923 294.058 484.529 303.519 480.869 318.849C477.21 334.179 486.67 349.573 502 353.232C517.33 356.892 532.724 347.431 536.384 332.101Z" fill="#FF0000" fill-opacity="0.16"/>
<path d="M367.927 80.4201C379.071 69.2761 379.071 51.2081 367.927 40.064C356.783 28.92 338.715 28.92 327.571 40.064C316.427 51.2081 316.427 69.2761 327.571 80.4201C338.715 91.5641 356.783 91.5641 367.927 80.4201Z" fill="#FF0000" fill-opacity="0.16"/>
<path d="M99.8808 363.154C103.367 347.784 93.7338 332.499 78.3645 329.013C62.9951 325.527 47.7098 335.16 44.2236 350.529C40.7375 365.898 50.3707 381.184 65.74 384.67C81.1093 388.156 96.3947 378.523 99.8808 363.154Z" fill="#FF0000" fill-opacity="0.16"/>
<path d="M407.794 357.176H489.882V293.855H407.794V357.176Z" fill="#F4CD1E"/>
<path d="M413.65 351.647H423.545V340.468H413.65V351.647Z" fill="white"/>
<path d="M464.84 294.019H455.513V307.526H464.84V294.019Z" fill="#FAFAFA"/>
<path d="M464.84 343.481H455.513V356.988H464.84V343.481Z" fill="#FAFAFA"/>
<path d="M428.283 357.613C428.136 357.613 428.022 343.685 428.022 326.509C428.022 309.333 428.136 295.405 428.283 295.405C428.431 295.405 428.545 309.333 428.545 326.509C428.545 343.685 428.42 357.613 428.283 357.613Z" fill="#E0E0E0"/>
<path d="M374.307 466.215H515.944V356.966H374.307V466.215Z" fill="#F6AB27"/>
<path d="M384.435 456.679H401.497V437.39H384.435V456.679Z" fill="white"/>
<path d="M472.735 357.249H456.649V380.56H472.735V357.249Z" fill="#FAFAFA"/>
<path d="M472.735 442.574H456.649V465.885H472.735V442.574Z" fill="#FAFAFA"/>
<path d="M409.664 466.964C409.414 466.964 409.21 442.938 409.21 413.299C409.21 383.661 409.414 359.635 409.664 359.635C409.914 359.635 410.119 383.661 410.119 413.299C410.107 442.938 409.914 466.964 409.664 466.964Z" fill="#E0E0E0"/>
<path d="M511.45 129.743L519.038 145.113L535.999 147.578L523.73 159.551L526.627 176.444L511.45 168.469L496.273 176.444L499.17 159.551L486.89 147.578L503.861 145.113L511.45 129.743Z" fill="#F6AB27"/>
<path d="M59.6514 328.27L64.434 337.96L75.1237 339.505L67.3876 347.048L69.2165 357.704L59.6514 352.671L50.0863 357.704L51.9152 347.048L44.1791 339.505L54.8688 337.96L59.6514 328.27Z" fill="#F6AB27"/>
<path d="M65.5813 243.854L76.2029 265.37L99.9453 268.823L82.769 285.568L86.8245 309.219L65.5813 298.052L44.3494 309.219L48.405 285.568L31.2173 268.823L54.971 265.37L65.5813 243.854Z" fill="#F6AB27"/>
<path d="M504.691 199.163L509.269 208.445L519.504 209.933L512.097 217.146L513.847 227.336L504.691 222.531L495.535 227.336L497.284 217.146L489.877 209.933L500.113 208.445L504.691 199.163Z" fill="#F6AB27"/>
<path d="M354.489 48.9275L359.067 58.1972L369.302 59.6854L361.895 66.899L363.645 77.1003L354.489 72.2836L345.333 77.1003L347.082 66.899L339.675 59.6854L349.911 58.1972L354.489 48.9275Z" fill="#F6AB27"/>
<path d="M459.194 148.146L462.193 154.212L468.895 155.189L464.045 159.915L465.192 166.583L459.194 163.436L453.207 166.583L454.355 159.915L449.504 155.189L456.206 154.212L459.194 148.146Z" fill="#F6AB27"/>
<path d="M182.805 454.525L188.644 466.339L201.685 468.236L192.245 477.438L194.483 490.434L182.805 484.299L171.138 490.434L173.365 477.438L163.925 468.236L176.977 466.339L182.805 454.525Z" fill="#F6AB27"/>
<path d="M198.209 442.767L200.618 447.652L206.014 448.436L202.106 452.242L203.037 457.615L198.209 455.07L193.393 457.615L194.313 452.242L190.405 448.436L195.801 447.652L198.209 442.767Z" fill="#F6AB27"/>
<path d="M413.663 397.509L418.786 407.903L430.26 409.573L421.956 417.662L423.921 429.09L413.663 423.694L403.394 429.09L405.359 417.662L397.055 409.573L408.528 407.903L413.663 397.509Z" fill="#FE4B4B"/>
<path d="M438.132 388.296L440.552 393.192L445.948 393.976L442.04 397.793L442.96 403.178L438.132 400.633L433.293 403.178L434.225 397.793L430.305 393.976L435.713 393.192L438.132 388.296Z" fill="#FE4B4B"/>
<path d="M406.052 117.758L410.062 105.194C406.938 98.9342 405.461 91.7547 406.131 84.2798C408.074 62.7753 427.113 46.9168 448.641 48.8707C470.179 50.8133 486.06 69.8299 484.106 91.3344C482.164 112.839 463.125 128.697 441.597 126.743C432.6 125.926 425.205 122.677 419.059 116.974L406.052 117.758Z" fill="white"/>
<path d="M406.052 117.758C406.052 117.758 406.359 117.724 406.915 117.69C407.495 117.644 408.335 117.587 409.414 117.508C411.618 117.36 414.856 117.133 419.059 116.849H419.116L419.161 116.883C422.865 120.302 428.511 124.085 436.156 125.71C438.053 126.119 440.052 126.437 442.131 126.562C443.176 126.596 444.233 126.641 445.312 126.687C446.391 126.675 447.482 126.562 448.595 126.505C453.025 126.096 457.66 124.903 462.113 122.722C466.567 120.552 470.815 117.406 474.371 113.35C477.915 109.295 480.801 104.342 482.402 98.7866C484.004 93.2429 484.402 87.1653 483.368 81.1672C483.186 79.6563 482.709 78.1909 482.334 76.7027C482.164 75.953 481.846 75.2373 481.584 74.5103C481.312 73.7946 481.051 73.0562 480.755 72.3405C479.415 69.5459 477.949 66.74 475.95 64.2749C475.041 62.9685 473.928 61.8552 472.871 60.6965C472.372 60.0944 471.735 59.6173 471.167 59.0834C470.577 58.5722 470.031 58.0155 469.418 57.5498L467.555 56.1752L466.623 55.4936L465.635 54.9029L463.658 53.7215C463 53.3466 462.284 53.0512 461.602 52.7218C456.104 50.1431 450.151 48.8935 444.38 49.0184C438.61 49.132 433.077 50.5407 428.227 52.8808C423.376 55.221 419.207 58.4699 415.935 62.1733C412.652 65.8767 410.266 70.0231 408.687 74.1808C408.494 74.7034 408.312 75.2259 408.131 75.7371C407.938 76.2483 407.767 76.7595 407.654 77.2935C407.392 78.3386 407.142 79.3723 406.881 80.3834C406.609 82.4509 406.222 84.4389 406.188 86.3815C405.87 94.1631 407.926 100.627 410.164 105.16L410.187 105.205L410.176 105.25C408.846 109.295 407.824 112.407 407.131 114.532C406.779 115.577 406.518 116.383 406.336 116.94C406.154 117.474 406.052 117.758 406.052 117.758C406.052 117.758 406.12 117.496 406.279 116.963C406.449 116.406 406.699 115.611 407.017 114.566C407.688 112.407 408.665 109.249 409.937 105.148L409.948 105.239C407.654 100.706 405.529 94.1971 405.813 86.336C405.847 84.3707 406.211 82.3714 406.484 80.2811C406.733 79.2587 406.983 78.2136 407.245 77.1571C407.358 76.6232 407.529 76.1007 407.722 75.5781C407.904 75.0555 408.097 74.533 408.278 73.9991C409.846 69.7959 412.254 65.5813 415.572 61.8211C418.877 58.061 423.081 54.7552 427.999 52.3696C432.907 49.984 438.53 48.5527 444.38 48.4277C450.231 48.2914 456.274 49.5523 461.864 52.1651C462.557 52.5059 463.272 52.8013 463.942 53.1762L465.942 54.369L466.941 54.9711L467.884 55.664L469.781 57.0613C470.406 57.5384 470.963 58.1064 471.565 58.6176C472.144 59.1629 472.781 59.64 473.292 60.2535C474.36 61.4349 475.496 62.5595 476.416 63.8773C478.438 66.3765 479.937 69.2279 481.289 72.0679C481.596 72.7949 481.846 73.5447 482.13 74.2717C482.391 75.0101 482.72 75.7258 482.891 76.4983C483.277 78.0091 483.766 79.4973 483.947 81.0309C484.993 87.1199 484.572 93.2883 482.948 98.9115C481.312 104.546 478.381 109.567 474.769 113.668C471.156 117.78 466.839 120.95 462.318 123.131C457.797 125.324 453.094 126.516 448.618 126.914C447.493 126.971 446.391 127.073 445.301 127.084C444.21 127.039 443.142 126.993 442.086 126.948C439.984 126.812 437.973 126.482 436.054 126.062C428.34 124.392 422.66 120.518 418.98 117.042L419.07 117.076C414.822 117.303 411.561 117.474 409.335 117.587C408.267 117.644 407.438 117.678 406.858 117.712C406.324 117.758 406.052 117.758 406.052 117.758Z" fill="#263238"/>
<path d="M422.944 86.3361L429.385 80.747L440.234 91.8911L464.567 71.6249L469.713 78.0433L438.542 103.422L422.944 86.3361Z" fill="#FE4B4B"/>
<path d="M338.653 397.021L120.814 445.573C115.531 446.755 110.283 443.415 109.101 438.132L38.4082 120.904C37.2267 115.622 40.5666 110.374 45.849 109.192L263.688 60.6396C268.971 59.4582 274.219 62.798 275.4 68.0804L346.094 385.308C347.275 390.602 343.947 395.85 338.653 397.021Z" fill="#353535"/>
<path d="M338.653 397.021C338.653 397.021 338.892 396.941 339.38 396.805C339.857 396.668 340.561 396.396 341.425 395.919C342.265 395.419 343.265 394.669 344.174 393.522C345.071 392.386 345.878 390.829 346.162 388.921C346.321 387.978 346.31 386.944 346.139 385.888C345.957 384.831 345.673 383.729 345.424 382.571C344.901 380.253 344.333 377.709 343.72 374.959C342.481 369.461 341.061 363.111 339.46 355.954C333.064 327.361 323.817 285.977 312.4 234.857C306.697 209.285 300.438 181.283 293.736 151.224C290.384 136.195 286.908 120.643 283.341 104.637C281.558 96.6281 279.74 88.5057 277.911 80.2697C276.991 76.1574 276.059 72.011 275.128 67.8419C274.628 65.8084 273.401 63.9795 271.754 62.6617C270.084 61.378 268.005 60.6169 265.881 60.6283C264.813 60.6283 263.779 60.8327 262.723 61.0827C261.666 61.3212 260.598 61.5598 259.542 61.7983C257.418 62.2755 255.282 62.7526 253.146 63.2297C248.864 64.1839 244.569 65.1382 240.241 66.1038C231.585 68.035 222.838 69.9889 213.988 71.9542C196.289 75.8961 178.227 79.9289 159.835 84.0299C123.052 92.2318 84.9614 100.718 45.9512 109.419C43.5656 109.942 41.4072 111.407 40.0667 113.441C38.7035 115.452 38.1582 117.996 38.5899 120.393C39.6123 125.233 40.737 130.072 41.7934 134.889C43.9405 144.522 46.0762 154.098 48.1891 163.595C52.4264 182.601 56.5955 201.322 60.6965 219.714C68.887 256.509 76.7936 291.997 84.3253 325.805C91.857 359.612 99.0024 391.738 105.705 421.808C106.545 425.568 107.375 429.294 108.193 432.986C108.613 434.827 108.999 436.69 109.442 438.485C109.908 440.268 110.908 441.881 112.26 443.108C113.611 444.335 115.304 445.153 117.076 445.471C117.962 445.619 118.871 445.641 119.768 445.55C120.655 445.437 121.541 445.221 122.438 445.017C125.994 444.221 129.527 443.438 133.014 442.665C146.976 439.564 160.369 436.576 173.149 433.736C224.292 422.376 265.676 413.174 294.269 406.824C308.572 403.655 319.67 401.201 327.202 399.531C330.962 398.702 333.836 398.066 335.768 397.645C337.665 397.225 338.653 397.021 338.653 397.021C338.653 397.021 337.665 397.259 335.745 397.691C333.814 398.122 330.951 398.77 327.191 399.622C319.659 401.315 308.56 403.802 294.269 407.006C265.676 413.402 224.303 422.649 173.172 434.066C160.392 436.917 146.998 439.905 133.037 443.029C129.549 443.812 126.028 444.596 122.461 445.391C121.575 445.585 120.689 445.812 119.757 445.925C118.826 446.016 117.883 445.993 116.963 445.846C115.111 445.516 113.35 444.664 111.953 443.392C110.556 442.12 109.499 440.438 109.022 438.587C108.568 436.746 108.193 434.918 107.772 433.066C106.943 429.374 106.114 425.648 105.273 421.888C98.5707 391.818 91.4026 359.692 83.8595 325.884C76.3165 292.077 68.4099 256.588 60.1966 219.793C56.0957 201.401 51.9266 182.669 47.6893 163.675C45.5763 154.178 43.4406 144.601 41.2936 134.968C40.2258 130.14 39.1238 125.335 38.0787 120.45C37.6357 117.951 38.2037 115.27 39.635 113.157C41.0437 111.033 43.3043 109.488 45.8149 108.942C84.8251 100.252 122.915 91.766 159.699 83.5641C178.091 79.4631 196.164 75.4417 213.852 71.4998C222.701 69.5345 231.449 67.5806 240.105 65.6494C244.433 64.6838 248.739 63.7295 253.01 62.7753C255.146 62.2982 257.281 61.8211 259.406 61.3553C260.473 61.1167 261.53 60.8782 262.586 60.651C263.632 60.4011 264.733 60.1739 265.847 60.1852C268.062 60.1739 270.243 60.9691 271.981 62.3095C273.696 63.6727 274.98 65.5926 275.503 67.7169C276.434 71.886 277.366 76.0324 278.286 80.1561C280.115 88.3921 281.932 96.5145 283.716 104.523C287.283 120.541 290.736 136.081 294.088 151.122C300.779 181.192 307.004 209.194 312.695 234.766C324.055 285.908 333.257 327.293 339.619 355.897C341.209 363.043 342.618 369.404 343.833 374.903C344.447 377.652 345.003 380.196 345.514 382.525C345.764 383.695 346.048 384.786 346.219 385.854C346.389 386.922 346.401 387.967 346.23 388.921C345.935 390.841 345.105 392.408 344.197 393.556C343.276 394.703 342.265 395.453 341.413 395.953C340.539 396.418 339.834 396.691 339.357 396.827C338.903 396.964 338.653 397.021 338.653 397.021Z" fill="#263238"/>
<g opacity="0.3">
<path d="M131.855 434.338L330.337 388.966L324.067 350.07L312.809 328.27L122.938 402.848L131.855 434.338Z" fill="black"/>
</g>
<g opacity="0.3">
<path d="M214.727 72.2836L222.236 84.6773L223.69 91.2548L218.6 92.3908L214.727 72.2836Z" fill="black"/>
</g>
<path d="M49.7113 122.745L118.576 431.737L334.427 383.638L322.113 328.383L265.563 74.6351L49.7113 122.745Z" fill="white"/>
<path d="M49.7113 122.745C51.2449 122.404 134.332 103.808 265.517 74.4534L265.699 74.408L265.744 74.6011C284.897 160.471 308.787 267.63 334.643 383.559V383.582L334.7 383.809L334.472 383.866C257.304 401.053 184.032 417.378 118.621 431.953L118.405 431.998L118.36 431.782C77.8273 249.318 50.1316 124.631 49.7113 122.745C50.1316 124.631 77.9977 249.284 118.78 431.691L118.519 431.532C183.93 416.946 257.202 400.61 334.37 383.411L334.188 383.695V383.673C308.367 267.732 284.5 160.574 265.381 74.692L265.608 74.8396C134.366 103.955 51.2563 122.404 49.7113 122.745Z" fill="#263238"/>
<path d="M219.759 94.9013L110.544 119.246L105.046 94.5832C104.182 90.7095 106.625 86.8698 110.499 86.0064L205.684 64.7973C209.558 63.934 213.398 66.3764 214.261 70.2501L219.759 94.9013Z" fill="#252525"/>
<path d="M169.343 60.3783L141.546 66.5695L150.1 89.6757L171.036 85.0068L169.343 60.3783Z" fill="#252525"/>
<path d="M205.684 64.786C205.707 64.911 184.43 69.7617 158.143 75.6235C131.855 81.4852 110.521 86.1315 110.499 86.0065C110.476 85.8816 131.753 81.0308 158.04 75.1691C184.327 69.3073 205.661 64.6611 205.684 64.786Z" fill="white"/>
<path d="M111.85 113.577C111.726 113.6 110.624 109.147 109.397 103.626C108.17 98.0935 107.272 93.595 107.397 93.5722C107.522 93.5495 108.624 98.0026 109.862 103.524C111.078 109.045 111.975 113.554 111.85 113.577Z" fill="white"/>
<path d="M214.556 88.1989C214.431 88.2216 213.42 84.1775 212.307 79.1677C211.194 74.1466 210.387 70.057 210.512 70.0343C210.637 70.0116 211.648 74.0557 212.761 79.0655C213.886 84.0866 214.681 88.1762 214.556 88.1989Z" fill="white"/>
<path d="M210.228 93.5949C210.251 93.7199 188.406 98.6956 161.426 104.716C134.434 110.726 112.543 115.497 112.521 115.372C112.498 115.247 134.343 110.271 161.323 104.251C188.303 98.2412 210.205 93.47 210.228 93.5949Z" fill="white"/>
<path d="M152.735 183.475C152.769 183.6 138.024 186.997 119.825 191.052C101.615 195.108 86.8358 198.3 86.8017 198.164C86.7676 198.039 101.502 194.642 119.712 190.587C137.922 186.542 152.701 183.35 152.735 183.475Z" fill="#263238"/>
<path d="M262.598 171.104C262.632 171.229 224.121 179.92 176.603 190.519C129.061 201.117 90.5165 209.592 90.4938 209.467C90.4597 209.342 128.97 200.652 176.5 190.053C224.019 179.465 262.575 170.979 262.598 171.104Z" fill="#263238"/>
<path d="M264.972 181.726C265.006 181.851 226.496 190.541 178.977 201.14C131.435 211.739 92.8907 220.214 92.8679 220.089C92.8339 219.964 131.344 211.273 178.875 200.674C226.382 190.075 264.938 181.601 264.972 181.726Z" fill="#263238"/>
<path d="M267.335 192.347C267.369 192.472 228.859 201.163 181.34 211.762C133.798 222.361 95.2536 230.835 95.2309 230.71C95.1968 230.585 133.707 221.895 181.237 211.296C228.756 200.697 267.301 192.222 267.335 192.347Z" fill="#263238"/>
<path d="M269.698 202.969C269.732 203.094 231.221 211.784 183.703 222.383C136.161 232.982 97.6165 241.457 97.5938 241.332C97.5597 241.207 136.07 232.516 183.6 221.918C231.119 211.319 269.675 202.833 269.698 202.969Z" fill="#263238"/>
<path d="M272.072 213.579C272.106 213.704 233.596 222.395 186.077 232.993C138.535 243.592 99.9908 252.067 99.968 251.942C99.934 251.817 138.444 243.127 185.975 232.528C233.482 221.94 272.038 213.454 272.072 213.579Z" fill="#263238"/>
<path d="M133.332 288.328C133.321 288.317 133.287 288.203 133.23 287.965C133.162 287.703 133.082 287.362 132.98 286.954C132.764 286.033 132.458 284.761 132.083 283.159C131.322 279.876 130.254 275.264 128.981 269.743L129.231 269.902C123.813 271.118 117.417 272.56 110.612 274.083C110.567 274.139 110.953 273.549 110.794 273.799V273.81V273.833L110.805 273.878L110.828 273.958L110.862 274.117L110.93 274.435L111.067 275.071C111.158 275.491 111.26 275.912 111.351 276.332C111.532 277.173 111.726 278.002 111.907 278.82C112.271 280.467 112.623 282.069 112.975 283.636C113.668 286.76 114.316 289.714 114.906 292.429L114.656 292.27C120.2 291.077 124.824 290.089 128.118 289.373C129.731 289.032 131.015 288.771 131.935 288.578C132.355 288.498 132.685 288.43 132.957 288.374C133.196 288.351 133.321 288.328 133.332 288.328C133.344 288.339 133.23 288.362 133.014 288.419C132.764 288.487 132.435 288.567 132.037 288.658C131.128 288.873 129.868 289.169 128.288 289.544C124.971 290.305 120.314 291.384 114.736 292.668L114.532 292.713L114.486 292.509C113.873 289.794 113.214 286.851 112.509 283.727C112.157 282.16 111.794 280.558 111.43 278.911C111.248 278.093 111.055 277.263 110.874 276.423C110.783 276.002 110.68 275.582 110.59 275.162L110.453 274.526L110.385 274.208L110.351 274.049L110.328 273.969L110.317 273.924V273.901V273.89C110.158 274.139 110.533 273.537 110.499 273.606C117.315 272.095 123.71 270.686 129.14 269.482L129.345 269.436L129.39 269.641C130.595 275.23 131.594 279.91 132.31 283.239C132.639 284.829 132.901 286.102 133.094 287.01C133.173 287.408 133.241 287.737 133.287 287.999C133.332 288.226 133.344 288.339 133.332 288.328Z" fill="#263238"/>
<path d="M271.832 242.403L141.852 271.366L144.269 282.21L274.248 253.247L271.832 242.403Z" fill="#E0E0E0"/>
<path d="M140.535 320.659C140.523 320.647 140.489 320.534 140.432 320.295C140.364 320.034 140.285 319.693 140.182 319.284C139.967 318.364 139.66 317.092 139.285 315.49C138.524 312.207 137.456 307.595 136.184 302.074L136.434 302.233C131.015 303.448 124.619 304.891 117.803 306.413C117.758 306.47 118.144 305.879 117.985 306.129V306.141V306.163L117.996 306.209L118.019 306.288L118.053 306.447L118.121 306.765L118.258 307.402C118.349 307.822 118.451 308.242 118.542 308.662C118.723 309.503 118.917 310.332 119.098 311.15C119.462 312.798 119.814 314.399 120.166 315.967C120.859 319.091 121.507 322.045 122.097 324.76L121.847 324.601C127.391 323.408 132.015 322.419 135.32 321.704C136.933 321.363 138.217 321.102 139.137 320.909C139.558 320.829 139.887 320.761 140.16 320.704C140.398 320.67 140.523 320.647 140.535 320.659C140.546 320.67 140.432 320.693 140.217 320.75C139.967 320.818 139.637 320.897 139.24 320.988C138.331 321.204 137.07 321.499 135.491 321.874C132.174 322.635 127.516 323.714 121.938 324.998L121.734 325.044L121.688 324.839C121.075 322.124 120.416 319.182 119.712 316.058C119.36 314.49 118.996 312.888 118.633 311.241C118.451 310.423 118.258 309.594 118.076 308.753C117.985 308.333 117.883 307.913 117.792 307.492L117.656 306.856L117.587 306.538L117.553 306.379L117.531 306.3L117.519 306.254V306.231V306.22C117.36 306.47 117.735 305.868 117.701 305.936C124.517 304.425 130.913 303.017 136.343 301.812L136.547 301.767L136.593 301.971C137.797 307.561 138.797 312.241 139.512 315.569C139.842 317.16 140.103 318.432 140.296 319.341C140.376 319.738 140.444 320.068 140.489 320.329C140.535 320.545 140.546 320.659 140.535 320.659Z" fill="#263238"/>
<path d="M279.033 274.724L149.054 303.687L151.47 314.531L281.449 285.568L279.033 274.724Z" fill="#E0E0E0"/>
<path d="M147.737 352.978C147.725 352.967 147.691 352.853 147.635 352.614C147.566 352.353 147.487 352.012 147.385 351.603C147.169 350.683 146.862 349.411 146.487 347.809C145.726 344.526 144.658 339.914 143.386 334.393L143.636 334.552C138.217 335.767 131.821 337.21 125.017 338.732C124.971 338.789 125.358 338.198 125.199 338.448V338.46V338.482L125.21 338.528L125.233 338.607L125.267 338.766L125.335 339.085L125.471 339.721C125.562 340.141 125.664 340.561 125.755 340.982C125.937 341.822 126.13 342.652 126.312 343.47C126.675 345.117 127.027 346.719 127.38 348.286C128.073 351.41 128.72 354.364 129.311 357.079L129.061 356.92C134.605 355.727 139.228 354.739 142.522 354.023C144.136 353.682 145.419 353.421 146.339 353.228C146.76 353.148 147.089 353.08 147.362 353.023C147.6 352.989 147.737 352.967 147.737 352.978C147.748 352.989 147.635 353.012 147.419 353.069C147.169 353.137 146.839 353.216 146.442 353.307C145.533 353.523 144.272 353.819 142.693 354.193C139.376 354.955 134.718 356.034 129.14 357.317L128.936 357.363L128.891 357.158C128.277 354.443 127.618 351.501 126.914 348.377C126.562 346.809 126.198 345.208 125.835 343.56C125.653 342.742 125.471 341.913 125.278 341.073C125.187 340.652 125.085 340.232 124.994 339.812L124.858 339.175L124.79 338.857L124.755 338.698L124.733 338.619L124.721 338.573V338.551V338.539C124.562 338.789 124.937 338.187 124.903 338.255C131.719 336.744 138.115 335.336 143.545 334.132L143.749 334.086L143.795 334.291C144.999 339.88 145.999 344.56 146.714 347.889C147.044 349.479 147.305 350.751 147.498 351.66C147.578 352.058 147.646 352.387 147.691 352.648C147.737 352.876 147.748 352.978 147.737 352.978Z" fill="#263238"/>
<path d="M286.237 307.056L156.257 336.019L158.674 346.863L288.653 317.901L286.237 307.056Z" fill="#E0E0E0"/>
<path d="M115.44 281.648L117.383 278.581L123.188 281.807L130.663 270.538L133.548 272.538L123.915 286.726L115.44 281.648Z" fill="#FE4B4B"/>
<path d="M122.393 312.888L124.346 309.821L130.151 313.047L137.615 301.778L140.512 303.778L130.867 317.966L122.393 312.888Z" fill="#FE4B4B"/>
<path d="M129.538 344.924L131.492 341.856L137.286 345.083L144.76 333.814L147.646 335.802L138.013 350.002L129.538 344.924Z" fill="#FE4B4B"/>
<path d="M189.03 385.115C189.064 385.24 178.091 387.796 164.527 390.818C150.963 393.84 139.944 396.191 139.91 396.055C139.876 395.93 150.849 393.374 164.425 390.352C177.977 387.342 188.996 384.99 189.03 385.115Z" fill="#263238"/>
<path d="M213.5 379.265C213.534 379.39 209.49 380.401 204.48 381.514C199.47 382.627 195.392 383.434 195.358 383.298C195.324 383.173 199.368 382.162 204.378 381.048C209.387 379.947 213.477 379.14 213.5 379.265Z" fill="#263238"/>
<path d="M294.542 353.762C294.576 353.887 284.693 356.204 272.492 358.919C260.28 361.645 250.363 363.747 250.34 363.611C250.306 363.486 260.178 361.168 272.39 358.453C284.591 355.738 294.519 353.637 294.542 353.762Z" fill="#263238"/>
<path d="M283.989 383.661C283.966 383.65 284.079 383.354 284.204 382.752C284.341 382.162 284.341 381.242 284.068 380.128C283.784 379.004 283.193 377.72 282.5 376.22C281.83 374.732 280.955 372.96 280.944 370.802C280.978 368.689 281.91 366.337 283.818 364.69C285.704 363.009 288.68 362.418 291.373 363.281C292.713 363.713 294.008 364.474 294.962 365.644C295.417 366.235 295.792 366.951 295.814 367.769C295.883 368.598 295.246 369.427 294.485 369.688C293.724 369.972 292.997 370.063 292.247 370.245C291.498 370.404 290.748 370.552 289.987 370.711C288.464 371.006 286.919 371.29 285.34 371.495C282.182 371.915 279.013 371.972 276.048 371.551C274.594 371.392 273.06 371.37 271.97 372.222C270.879 373.051 270.323 374.403 269.516 375.539C269.118 376.107 268.607 376.663 267.937 376.959C267.278 377.266 266.506 377.254 265.858 377.05C264.552 376.607 263.586 375.732 262.541 375.141C262.03 374.835 261.496 374.596 260.939 374.539C260.394 374.482 259.849 374.619 259.417 374.925C258.542 375.55 258.076 376.584 257.497 377.447C256.35 379.288 254.373 380.151 252.703 380.219C250.988 380.299 249.602 379.572 248.727 378.81C247.83 378.027 247.387 377.197 247.159 376.629C246.932 376.05 246.898 375.732 246.898 375.732C246.921 375.721 246.989 376.039 247.239 376.595C247.5 377.141 247.955 377.936 248.841 378.674C249.715 379.401 251.056 380.06 252.68 379.958C254.282 379.878 256.134 379.026 257.213 377.277C257.781 376.436 258.213 375.368 259.212 374.641C259.701 374.289 260.348 374.119 260.985 374.176C261.621 374.232 262.2 374.505 262.745 374.823C263.825 375.437 264.802 376.289 265.983 376.675C266.574 376.857 267.21 376.857 267.767 376.595C268.335 376.345 268.789 375.868 269.164 375.312C269.948 374.232 270.482 372.835 271.708 371.881C272.322 371.404 273.083 371.165 273.833 371.086C274.594 371.006 275.355 371.052 276.105 371.12C279.07 371.54 282.148 371.472 285.295 371.063C286.863 370.859 288.396 370.586 289.919 370.29C290.68 370.131 291.429 369.984 292.168 369.825C292.906 369.654 293.679 369.552 294.326 369.302C294.974 369.064 295.417 368.496 295.371 367.825C295.36 367.167 295.042 366.508 294.622 365.974C293.747 364.906 292.52 364.167 291.248 363.747C288.692 362.918 285.886 363.463 284.091 365.042C282.262 366.598 281.342 368.836 281.296 370.858C281.285 372.903 282.103 374.664 282.762 376.164C283.432 377.663 284.011 378.992 284.273 380.14C284.523 381.287 284.488 382.23 284.318 382.821C284.148 383.377 283.989 383.661 283.989 383.661Z" fill="#263238"/>
<path d="M307.481 369.12C307.481 369.132 307.277 369.2 306.89 369.302C306.447 369.404 305.879 369.541 305.175 369.723C303.619 370.086 301.472 370.586 298.836 371.188C293.486 372.426 286.102 374.176 277.991 376.232C269.868 378.288 262.541 380.276 257.247 381.73C254.646 382.446 252.51 383.036 250.976 383.457C250.272 383.639 249.704 383.798 249.272 383.911C248.875 384.013 248.67 384.059 248.67 384.036C248.67 384.025 248.864 383.945 249.25 383.82C249.681 383.684 250.238 383.502 250.931 383.275C252.396 382.809 254.521 382.173 257.156 381.401C262.427 379.856 269.743 377.822 277.866 375.766C285.988 373.71 293.383 372.006 298.757 370.847C301.438 370.268 303.619 369.813 305.13 369.529C305.845 369.393 306.425 369.291 306.868 369.2C307.265 369.132 307.47 369.109 307.481 369.12Z" fill="#263238"/>
<path d="M214.314 119.853L126.083 139.513L129.777 156.09L218.008 136.43L214.314 119.853Z" fill="#E0E0E0"/>
<path d="M297.768 388.864L326.271 539.452L352.319 491.32L401.69 520.299L349.286 373.665L297.768 388.864Z" fill="#FE4B4B"/>
<g opacity="0.3">
<path d="M307.356 439.507C312.627 440.598 318.773 438.735 322.51 434.861C325.112 432.169 326.839 428.522 330.11 426.727C333.053 425.114 336.676 425.341 339.903 426.239C343.14 427.136 346.185 428.624 349.422 429.476C355.784 431.123 362.804 430.09 368.416 426.659L360.192 403.825L322.022 399.054L303.823 420.922L307.356 439.507Z" fill="black"/>
</g>
<path d="M350.467 485.345C350.308 485.39 346.06 469.747 340.993 450.413C335.915 431.078 331.928 415.367 332.087 415.333C332.246 415.288 336.483 430.93 341.572 450.265C346.628 469.588 350.626 485.299 350.467 485.345Z" fill="#263238"/>
<path d="M301.937 396.691L273.435 547.279L247.387 499.158L198.016 528.126L250.42 381.492L301.937 396.691Z" fill="#FE4B4B"/>
<g opacity="0.3">
<path d="M234.743 425.352C234.743 425.352 242.854 432.021 252.521 428.954C262.189 425.875 268.198 425.228 273.435 428.954C278.672 432.68 292.838 444.812 292.838 444.812L296.132 427.443L277.104 401.315L257.236 405.325L243.081 406.733L237.821 416.685L234.743 425.352Z" fill="black"/>
</g>
<path d="M469.054 260.757C469.054 271.561 455.241 280.865 453.218 291.077C451.14 301.597 460.296 315.467 456.286 325.146C452.196 334.995 435.872 338.312 430.021 347.059C424.114 355.886 427.261 372.222 419.786 379.697C412.311 387.171 395.964 384.025 387.149 389.932C378.39 395.794 375.084 412.118 365.235 416.196C355.557 420.206 341.686 411.05 331.167 413.129C320.954 415.151 311.65 428.965 300.847 428.965C290.043 428.965 280.74 415.151 270.527 413.129C260.008 411.05 246.137 420.206 236.458 416.196C226.609 412.107 223.292 395.782 214.545 389.932C205.718 384.025 189.382 387.171 181.908 379.697C174.433 372.222 177.579 355.875 171.672 347.059C165.81 338.301 149.486 334.995 145.408 325.146C141.398 315.467 150.554 301.597 148.475 291.077C146.453 280.865 132.639 271.561 132.639 260.757C132.639 249.954 146.453 240.65 148.475 230.438C150.554 219.918 141.398 206.048 145.408 196.369C149.498 186.52 165.822 183.203 171.672 174.456C177.579 165.629 174.433 149.293 181.908 141.818C189.382 134.343 205.73 137.49 214.545 131.583C223.303 125.721 226.609 109.397 236.458 105.319C246.137 101.308 260.008 110.465 270.527 108.386C280.74 106.364 290.043 92.5499 300.847 92.5499C311.65 92.5499 320.954 106.364 331.167 108.386C341.686 110.465 355.557 101.308 365.235 105.319C375.084 109.408 378.401 125.732 387.149 131.583C395.975 137.49 412.311 134.343 419.786 141.818C427.261 149.293 424.114 165.64 430.021 174.456C435.883 183.214 452.207 186.52 456.286 196.369C460.296 206.048 451.14 219.918 453.218 230.438C455.252 240.639 469.054 249.954 469.054 260.757Z" fill="#FE4B4B"/>
<path d="M261.473 166.458C261.45 166.47 261.348 166.31 261.166 165.992C260.95 165.617 260.701 165.163 260.394 164.606C259.724 163.402 258.815 161.63 257.713 159.426C255.52 155.019 252.68 148.816 249.943 141.818C247.216 134.809 245.103 128.323 243.729 123.597C243.036 121.234 242.525 119.303 242.195 117.974C242.047 117.36 241.922 116.849 241.832 116.429C241.752 116.077 241.718 115.883 241.741 115.883C241.763 115.883 241.832 116.054 241.945 116.406C242.07 116.815 242.229 117.315 242.422 117.917C242.854 119.326 243.433 121.2 244.138 123.483C245.614 128.175 247.773 134.616 250.499 141.614C253.226 148.6 255.997 154.814 258.088 159.256C259.121 161.414 259.962 163.186 260.598 164.516C260.871 165.084 261.087 165.561 261.269 165.947C261.416 166.276 261.484 166.447 261.473 166.458Z" fill="#263238"/>
<path d="M276.446 160.767C276.411 160.778 276.252 160.335 276.014 159.517C275.775 158.699 275.446 157.518 275.071 156.041C274.321 153.087 273.39 148.986 272.549 144.42C271.708 139.853 271.118 135.684 270.777 132.662C270.607 131.151 270.482 129.924 270.425 129.072C270.357 128.22 270.345 127.755 270.391 127.743C270.436 127.743 270.527 128.198 270.663 129.038C270.811 130.004 270.993 131.197 271.209 132.594C271.663 135.593 272.31 139.739 273.151 144.306C273.992 148.862 274.855 152.974 275.491 155.939C275.787 157.325 276.048 158.506 276.252 159.46C276.4 160.29 276.48 160.755 276.446 160.767Z" fill="#263238"/>
<path d="M302.858 158.143C302.699 158.143 302.278 145.408 301.915 129.686C301.562 113.964 301.403 101.218 301.562 101.206C301.722 101.206 302.142 113.941 302.505 129.663C302.858 145.385 303.017 158.143 302.858 158.143Z" fill="#263238"/>
<path d="M329.429 131.958C329.588 132.003 327.747 138.376 325.328 146.192C322.908 154.008 320.818 160.301 320.67 160.244C320.511 160.199 322.351 153.826 324.771 146.01C327.191 138.206 329.269 131.912 329.429 131.958Z" fill="#263238"/>
<path d="M340.277 164.89C340.255 164.879 340.311 164.697 340.425 164.356C340.561 163.948 340.732 163.459 340.948 162.857C341.402 161.562 342.106 159.699 342.992 157.393C344.765 152.803 347.321 146.499 350.229 139.58C353.137 132.651 355.841 126.414 357.829 121.916C358.806 119.734 359.623 117.94 360.226 116.599C360.498 116.031 360.725 115.554 360.907 115.168C361.066 114.838 361.168 114.679 361.18 114.679C361.191 114.679 361.146 114.872 361.009 115.213C360.85 115.611 360.657 116.099 360.43 116.69C359.873 118.053 359.124 119.871 358.215 122.075C356.284 126.687 353.671 132.923 350.774 139.808C347.9 146.692 345.31 152.928 343.379 157.552C342.47 159.767 341.72 161.585 341.163 162.936C340.914 163.516 340.709 163.993 340.539 164.391C340.38 164.72 340.3 164.89 340.277 164.89Z" fill="#263238"/>
<path d="M354.477 172.297C354.443 172.274 354.671 171.866 355.125 171.138C355.568 170.411 356.25 169.389 357.102 168.128C358.806 165.606 361.259 162.187 364.111 158.529C366.973 154.871 369.688 151.656 371.722 149.384C372.733 148.248 373.574 147.339 374.164 146.737C374.755 146.124 375.096 145.806 375.13 145.828C375.164 145.851 374.88 146.237 374.335 146.896C373.71 147.646 372.949 148.578 372.04 149.668C370.097 151.997 367.428 155.246 364.576 158.904C361.725 162.562 359.226 165.936 357.442 168.389C356.602 169.537 355.886 170.502 355.318 171.298C354.807 171.945 354.512 172.32 354.477 172.297Z" fill="#263238"/>
<path d="M375.13 189.224C375.016 189.099 384.002 180.556 395.203 170.15C406.404 159.733 415.571 151.383 415.685 151.508C415.799 151.633 406.813 160.165 395.612 170.593C384.411 180.999 375.243 189.349 375.13 189.224Z" fill="#263238"/>
<path d="M411.209 192.756C411.243 192.836 409.914 193.506 407.79 194.62C405.654 195.733 402.757 197.335 399.554 199.141C396.35 200.936 393.397 202.492 391.216 203.514C390.125 204.026 389.228 204.423 388.603 204.673C387.978 204.923 387.626 205.048 387.603 205.014C387.569 204.934 388.898 204.264 391.023 203.151C393.158 202.038 396.055 200.436 399.259 198.63C402.462 196.835 405.416 195.278 407.597 194.256C408.687 193.745 409.585 193.347 410.21 193.097C410.846 192.836 411.198 192.711 411.209 192.756Z" fill="#263238"/>
<path d="M444.619 206.604C444.676 206.763 433.975 210.671 420.729 215.329C407.472 219.998 396.691 223.656 396.634 223.497C396.578 223.338 407.279 219.441 420.536 214.772C433.77 210.115 444.562 206.457 444.619 206.604Z" fill="#263238"/>
<path d="M455.252 267.346C455.241 267.505 443.608 266.54 429.283 265.177C414.958 263.813 403.348 262.575 403.371 262.416C403.382 262.257 415.015 263.223 429.34 264.586C443.665 265.949 455.263 267.187 455.252 267.346Z" fill="#263238"/>
<path d="M446.698 321.829C446.63 321.977 435.758 316.989 422.421 310.685C409.085 304.38 398.327 299.154 398.395 299.007C398.463 298.859 409.335 303.846 422.671 310.151C436.008 316.444 446.766 321.681 446.698 321.829Z" fill="#263238"/>
<path d="M410.937 373.665C410.812 373.767 402.973 364.679 393.431 353.353C383.877 342.027 376.243 332.769 376.368 332.655C376.493 332.553 384.331 341.641 393.885 352.967C403.428 364.293 411.062 373.551 410.937 373.665Z" fill="#263238"/>
<path d="M381.082 380.503C381.048 380.526 380.708 380.072 380.14 379.231C379.56 378.39 378.742 377.152 377.754 375.618C375.777 372.54 373.131 368.246 370.347 363.406C367.564 358.578 365.156 354.125 363.486 350.876C362.645 349.252 361.986 347.934 361.543 347.003C361.1 346.082 360.873 345.56 360.907 345.537C360.941 345.514 361.237 346.003 361.748 346.889C362.304 347.877 363.009 349.15 363.849 350.672C365.622 353.864 368.075 358.272 370.858 363.1C373.642 367.928 376.232 372.256 378.118 375.38C379.015 376.868 379.753 378.118 380.333 379.095C380.855 379.992 381.128 380.481 381.082 380.503Z" fill="#263238"/>
<path d="M362.543 406.574C362.52 406.586 362.418 406.427 362.248 406.109C362.043 405.734 361.805 405.268 361.509 404.723C360.873 403.519 359.987 401.746 358.942 399.531C356.852 395.112 354.159 388.91 351.603 381.901C349.047 374.88 347.116 368.405 345.878 363.668C345.253 361.305 344.787 359.385 344.503 358.045C344.378 357.431 344.265 356.92 344.174 356.5C344.106 356.147 344.083 355.954 344.106 355.954C344.128 355.954 344.185 356.125 344.299 356.477C344.412 356.886 344.56 357.386 344.73 357.988C345.128 359.396 345.651 361.271 346.287 363.554C347.627 368.246 349.615 374.687 352.16 381.696C354.716 388.694 357.329 394.908 359.328 399.361C360.305 401.519 361.112 403.303 361.714 404.621C361.975 405.189 362.179 405.666 362.361 406.052C362.498 406.393 362.566 406.563 362.543 406.574Z" fill="#263238"/>
<path d="M324.987 388.296C324.896 388.296 324.76 386.785 324.498 384.343C324.237 381.9 323.828 378.527 323.203 374.835C322.579 371.143 321.874 367.814 321.329 365.417C320.784 363.02 320.42 361.543 320.511 361.521C320.545 361.509 320.693 361.861 320.909 362.52C321.124 363.179 321.42 364.133 321.738 365.315C322.385 367.689 323.169 371.018 323.794 374.732C324.419 378.447 324.76 381.844 324.919 384.297C324.998 385.524 325.044 386.524 325.044 387.217C325.044 387.91 325.021 388.296 324.987 388.296Z" fill="#263238"/>
<path d="M300.415 421.002C300.392 421.002 300.381 420.797 300.37 420.422C300.358 419.968 300.358 419.423 300.347 418.752C300.336 417.298 300.336 415.208 300.392 412.607C300.483 407.426 300.722 400.258 301.131 392.363C301.54 384.457 302.051 377.311 302.471 372.142C302.687 369.564 302.869 367.473 303.017 366.031C303.096 365.36 303.153 364.815 303.198 364.372C303.244 363.997 303.289 363.793 303.301 363.793C303.323 363.793 303.323 363.997 303.312 364.372C303.289 364.826 303.267 365.372 303.232 366.042C303.142 367.576 303.017 369.654 302.869 372.165C302.562 377.425 302.153 384.525 301.71 392.386C301.29 400.281 300.995 407.438 300.801 412.618C300.711 415.14 300.631 417.219 300.574 418.752C300.54 419.423 300.517 419.968 300.495 420.422C300.461 420.797 300.438 421.002 300.415 421.002Z" fill="#263238"/>
<path d="M280.444 363.781C280.524 363.793 280.399 364.906 280.104 366.678C279.808 368.45 279.331 370.893 278.706 373.574C278.081 376.243 277.423 378.652 276.9 380.367C276.377 382.094 275.991 383.139 275.912 383.116C275.832 383.093 276.071 382.003 276.491 380.253C276.957 378.299 277.513 375.993 278.127 373.426C278.718 370.859 279.24 368.541 279.695 366.587C280.092 364.849 280.365 363.77 280.444 363.781Z" fill="#263238"/>
<path d="M244.331 346.435C244.456 346.537 242.241 349.684 239.355 353.478C236.481 357.272 234.039 360.26 233.914 360.169C233.789 360.067 236.004 356.92 238.889 353.126C241.763 349.331 244.206 346.332 244.331 346.435Z" fill="#263238"/>
<path d="M225.394 333.711C225.519 333.814 218.464 342.095 209.649 352.194C200.833 362.304 193.586 370.404 193.461 370.291C193.336 370.188 200.39 361.907 209.206 351.796C218.021 341.709 225.269 333.598 225.394 333.711Z" fill="#263238"/>
<path d="M215.908 319.625C216.01 319.75 212.091 323.158 207.15 327.225C202.208 331.303 198.118 334.495 198.016 334.37C197.914 334.245 201.833 330.837 206.775 326.77C211.716 322.692 215.806 319.489 215.908 319.625Z" fill="#263238"/>
<path d="M204.821 298.359C204.889 298.507 195.074 303.38 182.896 309.253C170.707 315.126 160.778 319.761 160.71 319.614C160.642 319.466 170.457 314.593 182.646 308.719C194.813 302.858 204.753 298.211 204.821 298.359Z" fill="#263238"/>
<path d="M200.368 287.76C200.379 287.806 200.015 287.908 199.345 288.067C198.686 288.226 197.709 288.43 196.517 288.646C194.12 289.089 190.78 289.601 187.076 289.975C183.373 290.35 179.999 290.509 177.557 290.543C176.341 290.566 175.353 290.555 174.671 290.532C173.99 290.509 173.615 290.475 173.615 290.441C173.615 290.35 175.114 290.271 177.545 290.123C179.976 289.975 183.328 289.748 187.02 289.373C190.712 288.998 194.04 288.567 196.448 288.226C198.857 287.885 200.345 287.669 200.368 287.76Z" fill="#263238"/>
<path d="M196.767 263.279C196.767 263.325 196.051 263.302 194.779 263.234C193.404 263.166 191.586 263.075 189.371 262.961C184.804 262.745 178.5 262.53 171.536 262.564C164.572 262.609 158.267 262.882 153.701 263.154C151.497 263.291 149.679 263.404 148.305 263.495C147.032 263.575 146.317 263.597 146.317 263.563C146.317 263.518 147.01 263.416 148.282 263.268C149.554 263.109 151.395 262.927 153.678 262.745C158.233 262.371 164.55 262.03 171.536 261.984C178.522 261.95 184.839 262.223 189.394 262.552C191.677 262.711 193.518 262.882 194.79 263.018C196.062 263.143 196.767 263.245 196.767 263.279Z" fill="#263238"/>
<path d="M198.993 241.786C198.948 241.945 191.598 240.026 182.566 237.515C173.535 234.993 166.253 232.823 166.299 232.664C166.344 232.505 173.694 234.425 182.725 236.936C191.757 239.458 199.038 241.627 198.993 241.786Z" fill="#263238"/>
<path d="M203.753 223.758C203.742 223.781 203.56 223.735 203.219 223.633C202.81 223.508 202.31 223.36 201.719 223.179C200.413 222.781 198.55 222.145 196.255 221.304C191.677 219.634 185.429 217.09 178.75 213.807C172.07 210.512 166.242 207.116 162.13 204.491C160.074 203.185 158.427 202.094 157.313 201.299C156.802 200.936 156.382 200.64 156.041 200.39C155.757 200.175 155.609 200.061 155.621 200.038C155.632 200.027 155.802 200.106 156.109 200.288C156.473 200.515 156.916 200.777 157.45 201.106C158.597 201.833 160.278 202.867 162.357 204.128C166.515 206.65 172.365 209.978 179.022 213.261C185.679 216.533 191.882 219.134 196.414 220.895C198.686 221.781 200.527 222.474 201.799 222.94C202.378 223.167 202.867 223.349 203.264 223.497C203.583 223.667 203.753 223.747 203.753 223.758Z" fill="#263238"/>
<path d="M214.443 205.65C214.352 205.786 208.592 201.901 201.595 196.971C194.597 192.041 188.996 187.94 189.087 187.804C189.178 187.667 194.926 191.552 201.935 196.483C208.944 201.401 214.534 205.514 214.443 205.65Z" fill="#263238"/>
<path d="M191.848 150.429C191.859 150.418 192.007 150.52 192.279 150.747C192.597 151.02 192.972 151.349 193.438 151.736C194.494 152.678 195.914 153.928 197.618 155.439C201.208 158.642 206.036 162.948 211.375 167.719C216.737 172.456 221.588 176.75 225.189 179.942C226.893 181.465 228.313 182.714 229.37 183.657C229.813 184.066 230.176 184.407 230.483 184.691C230.733 184.93 230.858 185.066 230.846 185.077C230.835 185.089 230.676 184.986 230.403 184.782C230.074 184.521 229.688 184.214 229.211 183.839C228.188 183.01 226.711 181.783 224.905 180.261C221.293 177.216 216.362 172.956 210.966 168.174C205.582 163.391 200.765 158.983 197.312 155.768C195.585 154.155 194.199 152.838 193.256 151.917C192.825 151.497 192.472 151.145 192.177 150.85C191.95 150.577 191.825 150.441 191.848 150.429Z" fill="#263238"/>
<path d="M227.28 151.463C227.314 151.44 227.586 151.724 228.052 152.247C228.518 152.781 229.177 153.565 229.96 154.553C231.539 156.529 233.641 159.313 235.822 162.493C238.003 165.674 239.832 168.651 241.105 170.843C241.741 171.934 242.229 172.831 242.559 173.456C242.888 174.081 243.047 174.444 243.013 174.456C242.934 174.501 242.104 173.183 240.752 171.048C239.401 168.923 237.515 165.992 235.345 162.823C233.175 159.653 231.131 156.836 229.642 154.803C228.143 152.769 227.211 151.508 227.28 151.463Z" fill="#263238"/>
<g opacity="0.2">
<path d="M181.874 141.796L231.29 185.066L243.57 175.239L214.897 131.299C214.897 131.299 212.705 132.912 206.99 134.548C201.47 136.127 185.179 136.547 181.874 141.796Z" fill="black"/>
</g>
<g opacity="0.2">
<path d="M236.89 105.194L261.019 165.595L276.434 160.767L271.299 108.374C271.299 108.374 268.641 108.999 262.757 108.249C257.043 107.522 243.195 102.104 236.89 105.194Z" fill="black"/>
</g>
<g opacity="0.3">
<path d="M301.233 92.5499L302.846 158.143L317.296 158.836L331.939 108.488C331.655 108.465 327.884 107.806 323.43 104.966C318.432 101.763 308.231 92.0274 301.233 92.5499Z" fill="black"/>
</g>
<g opacity="0.2">
<path d="M364.258 104.944L340.277 165.413L353.33 171.65L386.331 130.913C386.081 130.776 382.957 128.175 380.06 123.54C376.925 118.508 371.563 106.954 364.258 104.944Z" fill="black"/>
</g>
<g opacity="0.2">
<path d="M420.581 142.67L375.914 189.224L385.865 202.64L429.51 173.513C429.51 173.513 427.681 170.605 426.636 165.015C425.591 159.358 425.443 149.043 420.581 142.67Z" fill="black"/>
</g>
<g opacity="0.2">
<path d="M455.843 195.222L395.691 219.975L400.678 235.345L453.014 229.665C453.014 229.665 452.685 228.052 453.377 222.145C454.036 216.442 460.046 203.674 455.843 195.222Z" fill="black"/>
</g>
<g opacity="0.2">
<path d="M469.157 260.757L403.587 263.052L403.041 277.513L453.071 292.145C453.094 291.861 453.537 289.044 455.059 286.17C458.728 279.206 469.157 269.391 469.157 260.757Z" fill="black"/>
</g>
<g opacity="0.2">
<path d="M457.07 322.76L396.691 299.222L390.579 312.343L431.657 344.924C431.782 344.674 434.179 342.447 438.791 339.516C443.801 336.324 455.684 331.155 457.07 322.76Z" fill="black"/>
</g>
<g opacity="0.2">
<path d="M368.268 321.829L353.33 334.37C354.466 335.552 374.38 369.405 386.649 390.33C386.819 390.205 386.978 390.057 387.149 389.943C395.237 384.536 409.608 386.706 417.719 381.344L368.268 321.829Z" fill="black"/>
<path d="M340.8 345.549L318.489 353.16L329.054 413.731C329.747 413.493 330.451 413.288 331.155 413.152C341.675 411.073 355.545 420.229 365.224 416.219C366.553 415.663 367.757 414.879 368.882 413.936L340.8 345.549Z" fill="black"/>
<path d="M300.063 428.954L303.63 349.82L284.341 344.935L269.982 413.072C270.163 413.107 270.334 413.129 270.516 413.163C280.478 415.117 289.578 428.318 300.063 428.954Z" fill="black"/>
<path d="M251.556 336.381C251.556 336.381 226.064 370.529 212.739 388.921C213.363 389.228 213.966 389.569 214.534 389.955C223.292 395.817 226.598 412.141 236.447 416.219C236.901 416.401 237.367 416.56 237.833 416.685L273.446 349.275L251.556 336.381Z" fill="black"/>
<path d="M225.394 308.89L171.025 346.264C171.229 346.537 171.456 346.798 171.65 347.071C177.557 355.898 174.41 372.233 181.885 379.708C182.578 380.401 183.362 380.969 184.18 381.492C203.389 359.839 237.878 320.966 239.128 319.614L225.394 308.89Z" fill="black"/>
<path d="M212.932 282.205L148.646 292.588C149.668 302.903 141.546 315.922 145.362 325.146C145.601 325.714 145.885 326.248 146.192 326.77C168.685 315.57 215.692 292.27 217.646 292.145L212.932 282.205Z" fill="black"/>
<path d="M209.422 246.398L148.657 228.859C148.611 229.393 148.543 229.915 148.441 230.426C146.419 240.639 132.605 249.943 132.605 260.746C132.605 261.473 132.673 262.189 132.787 262.905H206.956L209.422 246.398Z" fill="black"/>
<path d="M145.624 195.881C168.332 208.047 212.739 232.664 212.739 232.664L223.667 211.91L172.331 173.263C172.115 173.66 171.899 174.069 171.65 174.444C165.879 183.044 150.031 186.406 145.624 195.881Z" fill="black"/>
</g>
<path d="M469.054 260.757C469.054 260.757 469.02 260.519 468.986 260.042C468.929 259.565 468.941 258.838 468.691 257.929C468.339 256.077 467.294 253.408 465.283 250.318C463.329 247.182 460.375 243.672 457.297 239.23C455.797 236.992 454.23 234.47 453.4 231.449C452.571 228.416 452.73 224.996 453.378 221.554C454.002 218.089 455.036 214.522 455.945 210.739C456.774 206.979 457.683 202.867 456.842 198.686C456.399 196.619 455.411 194.654 454.025 192.938C452.616 191.234 450.844 189.803 448.97 188.451C445.198 185.77 440.87 183.634 436.712 180.84C434.645 179.443 432.6 177.875 430.919 175.887C429.215 173.899 428.113 171.422 427.363 168.855C425.898 163.686 425.58 158.165 424.466 152.633C423.898 149.884 423.137 147.089 421.672 144.613C420.24 142.114 417.912 140.182 415.197 139.012C412.493 137.808 409.517 137.195 406.506 136.695C403.496 136.195 400.406 135.843 397.316 135.298C394.226 134.741 391.068 134.014 388.205 132.435C385.331 130.867 383.082 128.345 381.207 125.653C379.322 122.938 377.697 120.03 375.97 117.167C374.244 114.304 372.426 111.43 370.063 108.977C367.712 106.557 364.565 104.807 361.1 104.58C357.647 104.319 354.159 104.978 350.717 105.796C347.264 106.625 343.81 107.636 340.221 108.306C336.665 108.999 332.848 109.249 329.247 108.102C325.702 106.875 322.578 104.717 319.557 102.501C316.535 100.275 313.581 97.9005 310.332 95.9352C307.106 94.0268 303.426 92.4477 299.597 92.868L298.882 92.9248C298.643 92.9703 298.416 93.0271 298.189 93.0725C297.723 93.1861 297.257 93.2656 296.791 93.402C295.894 93.7314 294.962 94.004 294.11 94.4471C292.35 95.2309 290.702 96.2874 289.078 97.3666C285.84 99.5704 282.796 102.104 279.479 104.353C277.843 105.5 276.082 106.511 274.253 107.375C272.401 108.215 270.379 108.715 268.335 108.874C264.222 109.079 260.178 108.147 256.213 107.148C252.237 106.148 248.261 105.012 244.172 104.614C242.127 104.444 240.059 104.535 238.071 105.023C236.072 105.5 234.3 106.636 232.732 107.954C229.597 110.692 227.404 114.373 225.235 117.985C223.065 121.62 220.997 125.414 218.112 128.675C216.658 130.277 214.977 131.742 213 132.73C211.023 133.696 208.933 134.343 206.797 134.843C202.526 135.775 198.164 136.184 193.87 136.956C189.621 137.729 185.191 138.933 182.044 141.989C180.522 143.545 179.465 145.499 178.681 147.544C177.886 149.6 177.432 151.781 177.023 153.962C176.228 158.347 175.864 162.846 174.796 167.265C174.285 169.48 173.535 171.661 172.377 173.66C171.218 175.66 169.627 177.386 167.821 178.806C164.231 181.692 160.153 183.828 156.245 186.213C154.303 187.417 152.383 188.667 150.611 190.11C148.873 191.575 147.294 193.256 146.203 195.244C145.101 197.221 144.601 199.504 144.624 201.788C144.613 204.082 144.965 206.377 145.419 208.638C146.385 213.182 147.816 217.646 148.589 222.315C148.986 224.644 149.134 227.052 148.827 229.427C148.521 231.812 147.6 234.073 146.453 236.163C144.09 240.321 141 243.956 138.262 247.818C136.877 249.738 135.604 251.749 134.593 253.885C133.594 256.009 132.889 258.304 132.878 260.655C132.889 263.007 133.582 265.301 134.57 267.426C135.57 269.561 136.842 271.572 138.228 273.492C140.966 277.366 144.056 281.001 146.43 285.147C147.578 287.226 148.509 289.498 148.816 291.884C149.134 294.258 148.998 296.666 148.589 298.995C147.828 303.664 146.385 308.14 145.419 312.684C144.954 314.956 144.613 317.251 144.613 319.546C144.59 321.84 145.09 324.112 146.18 326.1C147.26 328.088 148.839 329.781 150.577 331.246C152.349 332.689 154.269 333.95 156.211 335.154C160.108 337.54 164.197 339.675 167.787 342.561C169.582 343.981 171.195 345.708 172.342 347.707C173.501 349.706 174.262 351.899 174.762 354.103C175.83 358.533 176.194 363.032 176.989 367.417C177.386 369.609 177.852 371.79 178.647 373.835C179.431 375.88 180.488 377.834 181.998 379.39C185.145 382.446 189.576 383.661 193.824 384.434C198.13 385.218 202.492 385.615 206.763 386.547C208.888 387.047 210.989 387.694 212.966 388.66C214.942 389.648 216.624 391.113 218.078 392.715C220.963 395.976 223.031 399.77 225.201 403.416C227.382 407.029 229.574 410.71 232.698 413.447C234.266 414.765 236.038 415.901 238.037 416.378C240.025 416.878 242.093 416.957 244.138 416.787C248.239 416.389 252.215 415.253 256.179 414.254C260.144 413.254 264.188 412.323 268.3 412.527C270.345 412.686 272.367 413.186 274.219 414.027C276.048 414.89 277.809 415.901 279.445 417.048C282.762 419.298 285.806 421.831 289.044 424.035C290.668 425.114 292.315 426.17 294.076 426.954C294.94 427.409 295.86 427.67 296.757 427.999C297.212 428.124 297.689 428.215 298.154 428.329C298.393 428.374 298.62 428.442 298.847 428.477L299.563 428.533C303.391 428.965 307.072 427.375 310.298 425.466C313.536 423.501 316.49 421.127 319.523 418.9C322.544 416.685 325.668 414.538 329.213 413.311C332.814 412.164 336.631 412.413 340.186 413.106C343.765 413.777 347.23 414.788 350.683 415.617C354.125 416.435 357.624 417.094 361.066 416.833C364.531 416.594 367.666 414.856 370.018 412.425C372.369 409.982 374.187 407.097 375.925 404.234C377.652 401.36 379.276 398.452 381.162 395.748C383.048 393.056 385.297 390.534 388.171 388.966C391.034 387.387 394.192 386.66 397.282 386.104C400.383 385.558 403.462 385.206 406.472 384.706C409.483 384.207 412.447 383.582 415.163 382.378C417.878 381.208 420.195 379.276 421.626 376.777C423.092 374.301 423.853 371.506 424.421 368.757C425.534 363.236 425.852 357.704 427.318 352.546C428.056 349.979 429.169 347.502 430.873 345.526C432.555 343.538 434.611 341.97 436.667 340.573C440.813 337.778 445.153 335.643 448.913 332.962C450.787 331.621 452.548 330.178 453.968 328.474C455.366 326.759 456.342 324.794 456.786 322.726C457.274 320.659 457.149 318.546 456.956 316.535C456.751 314.513 456.297 312.559 455.888 310.673C454.979 306.89 453.957 303.323 453.321 299.859C452.673 296.417 452.514 292.997 453.343 289.964C454.184 286.931 455.74 284.409 457.24 282.182C460.319 277.741 463.283 274.242 465.226 271.095C467.237 267.994 468.271 265.336 468.634 263.484C468.895 262.575 468.873 261.848 468.929 261.371C469.032 260.996 469.054 260.757 469.054 260.757C469.054 260.757 469.043 260.996 469.009 261.473C468.963 261.95 468.986 262.677 468.736 263.597C468.395 265.461 467.373 268.153 465.374 271.265C463.431 274.424 460.489 277.945 457.433 282.387C455.945 284.625 454.4 287.135 453.582 290.123C452.775 293.111 452.935 296.496 453.593 299.915C454.23 303.358 455.263 306.925 456.183 310.707C456.604 312.605 457.07 314.558 457.274 316.603C457.467 318.637 457.592 320.772 457.104 322.885C456.661 324.998 455.65 327.02 454.241 328.77C452.81 330.508 451.026 331.962 449.14 333.314C445.346 336.018 441.018 338.165 436.894 340.948C434.849 342.345 432.827 343.89 431.169 345.844C429.51 347.786 428.42 350.206 427.693 352.751C426.25 357.863 425.932 363.384 424.83 368.939C424.262 371.711 423.501 374.539 422.001 377.084C420.536 379.651 418.127 381.662 415.367 382.855C412.607 384.082 409.607 384.718 406.586 385.218C403.564 385.717 400.474 386.07 397.395 386.626C394.328 387.183 391.204 387.91 388.421 389.455C385.627 390.977 383.434 393.442 381.571 396.112C379.708 398.793 378.095 401.701 376.357 404.575C374.63 407.449 372.801 410.357 370.393 412.857C368.007 415.333 364.713 417.162 361.157 417.401C357.613 417.673 354.08 416.992 350.615 416.185C347.15 415.356 343.697 414.345 340.141 413.686C336.619 413.004 332.893 412.777 329.406 413.879C325.952 415.072 322.863 417.196 319.852 419.411C316.842 421.638 313.877 424.012 310.594 426.011C309.753 426.466 308.947 427 308.049 427.375C307.606 427.579 307.174 427.795 306.731 427.977L305.357 428.465C303.505 429.033 301.528 429.408 299.552 429.147L298.813 429.09C298.575 429.056 298.336 428.988 298.086 428.942C297.609 428.829 297.121 428.738 296.644 428.602C295.723 428.261 294.769 427.988 293.894 427.522C292.088 426.716 290.43 425.648 288.782 424.557C285.522 422.331 282.466 419.797 279.183 417.571C277.559 416.435 275.832 415.447 274.037 414.595C272.22 413.777 270.288 413.3 268.3 413.141C264.302 412.947 260.303 413.856 256.35 414.856C252.385 415.844 248.398 417.003 244.217 417.401C242.127 417.571 239.991 417.491 237.924 416.98C235.834 416.48 233.982 415.288 232.357 413.936C229.131 411.118 226.927 407.392 224.735 403.769C222.565 400.122 220.498 396.35 217.669 393.158C216.238 391.591 214.624 390.193 212.716 389.228C210.807 388.296 208.74 387.66 206.65 387.16C202.424 386.24 198.073 385.831 193.733 385.047C191.575 384.627 189.394 384.184 187.315 383.355C185.236 382.548 183.237 381.435 181.612 379.844C180.022 378.209 178.92 376.186 178.125 374.085C177.307 371.983 176.852 369.768 176.443 367.564C175.637 363.145 175.273 358.647 174.217 354.284C173.717 352.103 172.967 349.968 171.854 348.036C170.741 346.117 169.196 344.447 167.424 343.049C163.902 340.221 159.835 338.085 155.905 335.688C153.951 334.473 152.008 333.212 150.202 331.735C148.43 330.235 146.794 328.497 145.658 326.418C144.522 324.351 143.988 321.942 144.022 319.591C144.022 317.228 144.374 314.899 144.84 312.605C145.806 308.026 147.248 303.551 147.998 298.95C148.396 296.655 148.532 294.304 148.214 292.009C147.907 289.714 147.021 287.533 145.896 285.488C143.568 281.41 140.489 277.775 137.729 273.878C136.343 271.936 135.036 269.914 134.014 267.721C132.991 265.54 132.276 263.154 132.264 260.701C132.287 258.236 133.014 255.861 134.037 253.68C135.059 251.499 136.365 249.466 137.751 247.523C140.512 243.638 143.59 240.003 145.908 235.925C147.032 233.88 147.918 231.687 148.214 229.393C148.509 227.098 148.373 224.758 147.987 222.463C147.226 217.862 145.794 213.386 144.817 208.808C144.351 206.513 143.999 204.185 144.011 201.822C143.988 199.47 144.51 197.073 145.669 195.006C146.805 192.927 148.441 191.189 150.213 189.701C152.019 188.224 153.962 186.963 155.916 185.747C159.835 183.35 163.902 181.215 167.424 178.386C169.196 176.989 170.729 175.319 171.843 173.399C172.956 171.468 173.694 169.332 174.194 167.151C175.239 162.789 175.614 158.29 176.421 153.883C176.83 151.679 177.295 149.464 178.102 147.362C178.897 145.26 179.999 143.238 181.59 141.602C183.214 140.012 185.225 138.899 187.304 138.092C189.382 137.274 191.564 136.82 193.722 136.411C198.062 135.627 202.412 135.229 206.627 134.298C208.729 133.809 210.785 133.162 212.693 132.23C214.602 131.276 216.215 129.868 217.646 128.3C220.475 125.108 222.531 121.336 224.701 117.701C226.893 114.077 229.086 110.362 232.323 107.534C233.948 106.171 235.799 104.989 237.89 104.489C239.957 103.978 242.093 103.887 244.183 104.069C248.364 104.478 252.351 105.625 256.316 106.614C260.269 107.613 264.268 108.522 268.266 108.329C270.254 108.181 272.186 107.693 274.003 106.886C275.798 106.034 277.525 105.046 279.149 103.91C282.432 101.683 285.488 99.1501 288.748 96.9236C290.396 95.833 292.054 94.7652 293.86 93.9586C294.735 93.5042 295.689 93.2202 296.61 92.8794C297.087 92.7431 297.575 92.6522 298.052 92.5386C298.291 92.4932 298.529 92.425 298.779 92.3796L299.518 92.3228C301.483 92.0615 303.471 92.4477 305.323 93.0044L306.697 93.4928C307.152 93.6746 307.572 93.9018 308.015 94.0949C308.912 94.4698 309.719 95.0037 310.56 95.4581C313.843 97.4575 316.796 99.8317 319.818 102.058C322.828 104.273 325.918 106.386 329.372 107.591C332.848 108.693 336.574 108.477 340.096 107.784C343.64 107.125 347.093 106.114 350.57 105.285C354.034 104.467 357.567 103.796 361.112 104.058C364.679 104.285 367.962 106.114 370.359 108.59C372.767 111.089 374.585 113.998 376.323 116.86C378.049 119.734 379.663 122.643 381.526 125.324C383.389 127.993 385.581 130.458 388.376 131.981C391.159 133.525 394.283 134.253 397.35 134.809C400.429 135.354 403.507 135.718 406.54 136.218C409.562 136.718 412.561 137.354 415.322 138.581C418.082 139.773 420.502 141.784 421.967 144.34C423.467 146.885 424.239 149.713 424.796 152.485C425.909 158.04 426.216 163.561 427.658 168.673C428.397 171.207 429.465 173.638 431.135 175.58C432.782 177.534 434.804 179.09 436.849 180.476C440.972 183.26 445.301 185.407 449.095 188.11C450.981 189.462 452.764 190.916 454.195 192.654C455.615 194.404 456.615 196.426 457.07 198.527C457.558 200.64 457.422 202.776 457.24 204.809C457.035 206.854 456.57 208.808 456.149 210.705C455.241 214.5 454.195 218.055 453.559 221.497C452.9 224.928 452.741 228.302 453.548 231.29C454.366 234.277 455.911 236.799 457.399 239.026C460.455 243.468 463.408 246.989 465.34 250.147C467.339 253.26 468.361 255.952 468.702 257.815C468.952 258.735 468.918 259.462 468.975 259.94C469.054 260.508 469.054 260.757 469.054 260.757Z" fill="#263238"/>
<path d="M269.277 416.867C269.436 416.912 265.245 433.907 259.917 454.832C254.589 475.768 250.136 492.695 249.977 492.661C249.818 492.615 254.009 475.621 259.337 454.695C264.676 433.759 269.118 416.821 269.277 416.867Z" fill="#263238"/>
<path d="M300.835 363.884C357.79 363.884 403.962 317.712 403.962 260.757C403.962 203.802 357.79 157.631 300.835 157.631C243.88 157.631 197.709 203.802 197.709 260.757C197.709 317.712 243.88 363.884 300.835 363.884Z" fill="black"/>
<path d="M237.333 225.019C235.913 226.439 228.086 240.662 227.382 252.385C226.666 264.12 228.359 329.997 228.359 329.997L228.665 334.359C247.228 356.068 314.706 388.376 375.482 334.245L378.89 293.724L368.859 207.945L334.018 199.413L325.85 186.168L271.402 198.914L266.551 210.387L237.333 225.019Z" fill="#844BFE"/>
<path d="M322.079 151.701C324.476 142.795 326.839 133.809 327.668 124.619C328.497 115.429 327.725 105.932 324.078 97.4575C323.521 96.1738 318.921 87.597 317.535 87.8128C316.546 87.9605 319.523 96.0261 319.068 96.9122C314.695 105.398 313.9 115.361 315.16 124.824C316.399 134.287 318.818 142.727 322.079 151.701Z" fill="black"/>
<path d="M321.17 116.485C320.727 93.3451 306.902 74.3171 283.773 75.3963L281.637 75.6235C260.201 77.8841 244.081 96.2305 244.604 117.78C245.092 137.831 245.899 159.983 247.148 170.639C249.75 192.7 272.197 193.802 272.197 193.802C272.242 193.802 273.231 208.308 273.231 208.308L282.716 218.612L326.691 191.371L321.17 116.485Z" fill="#FFBF9D"/>
<path d="M272.22 193.972C272.22 193.972 286.227 193.325 300.074 182.442C300.074 182.442 295.44 202.447 273.185 202.776L272.22 193.972Z" fill="#FF9A6C"/>
<path d="M257.327 135.763C257.44 137.433 258.951 138.717 260.701 138.626C262.45 138.535 263.768 137.115 263.654 135.434C263.541 133.764 262.03 132.48 260.28 132.571C258.531 132.662 257.202 134.093 257.327 135.763Z" fill="black"/>
<path d="M250.306 126.448C250.738 126.823 252.942 124.801 256.338 124.449C259.724 124.051 262.405 125.539 262.723 125.085C262.882 124.88 262.405 124.176 261.235 123.506C260.087 122.836 258.179 122.256 256.066 122.495C253.953 122.733 252.26 123.699 251.317 124.596C250.363 125.505 250.09 126.278 250.306 126.448Z" fill="black"/>
<path d="M287.306 133.219C287.419 134.889 288.93 136.172 290.68 136.081C292.429 135.991 293.747 134.571 293.633 132.889C293.52 131.219 292.009 129.936 290.259 130.027C288.51 130.117 287.192 131.549 287.306 133.219Z" fill="black"/>
<path d="M283.693 124.313C284.125 124.687 286.329 122.665 289.725 122.313C293.111 121.916 295.78 123.404 296.11 122.949C296.269 122.745 295.803 122.041 294.622 121.37C293.474 120.7 291.566 120.121 289.453 120.359C287.34 120.598 285.647 121.563 284.704 122.461C283.761 123.37 283.489 124.154 283.693 124.313Z" fill="black"/>
<path d="M274.264 151.679C274.264 151.486 272.117 151.338 268.653 151.27C267.778 151.27 266.937 151.19 266.733 150.611C266.46 150.009 266.721 149.032 267.039 147.975C267.63 145.794 268.255 143.5 268.903 141.103C271.47 131.333 273.231 123.336 272.844 123.233C272.447 123.131 270.05 130.969 267.483 140.739C266.869 143.147 266.278 145.442 265.733 147.635C265.506 148.657 265.063 149.827 265.642 151.088C265.949 151.713 266.631 152.11 267.199 152.201C267.767 152.315 268.255 152.269 268.687 152.247C272.14 152.076 274.276 151.872 274.264 151.679Z" fill="black"/>
<path d="M284.5 152.974C283.943 152.996 284.329 156.688 281.444 159.631C278.57 162.584 274.605 162.584 274.628 163.107C274.605 163.345 275.582 163.732 277.241 163.595C278.877 163.482 281.194 162.709 282.955 160.903C284.704 159.097 285.306 156.87 285.272 155.348C285.261 153.792 284.75 152.928 284.5 152.974Z" fill="black"/>
<path d="M282.432 110.521C282.864 111.408 286.204 110.612 290.237 110.669C294.269 110.646 297.609 111.476 298.041 110.59C298.234 110.169 297.587 109.363 296.189 108.602C294.803 107.841 292.668 107.216 290.248 107.204C287.828 107.193 285.681 107.806 284.295 108.545C282.898 109.295 282.239 110.101 282.432 110.521Z" fill="black"/>
<path d="M250.522 115.02C251.204 115.724 253.453 114.679 256.259 114.35C259.053 113.918 261.507 114.316 261.973 113.452C262.166 113.032 261.712 112.305 260.598 111.68C259.496 111.067 257.724 110.646 255.793 110.908C253.862 111.169 252.271 112.044 251.374 112.941C250.454 113.839 250.215 114.668 250.522 115.02Z" fill="black"/>
<path d="M321.09 133.037C321.454 132.833 335.79 126.948 336.903 142.102C338.017 157.256 322.578 155.246 322.51 154.803C322.454 154.371 321.09 133.037 321.09 133.037Z" fill="#FFBF9D"/>
<path d="M326.725 148.725C326.793 148.668 326.998 148.896 327.463 149.066C327.918 149.236 328.668 149.316 329.44 148.964C330.996 148.259 332.155 145.624 332.03 142.886C331.962 141.5 331.587 140.217 331.019 139.16C330.474 138.081 329.701 137.365 328.883 137.274C328.065 137.149 327.532 137.672 327.384 138.115C327.213 138.558 327.327 138.853 327.248 138.876C327.213 138.921 326.907 138.649 326.975 138.013C327.02 137.706 327.168 137.331 327.497 137.024C327.838 136.706 328.361 136.513 328.929 136.536C330.099 136.536 331.235 137.524 331.86 138.683C332.553 139.842 333.018 141.284 333.087 142.841C333.212 145.896 331.86 148.873 329.713 149.668C328.668 150.02 327.759 149.77 327.27 149.441C326.782 149.089 326.68 148.748 326.725 148.725Z" fill="#FF9A6C"/>
<path d="M252.805 92.0387C250.261 90.8459 257.111 82.4282 262.973 79.3042C271.822 74.5784 285.568 71.1477 294.122 72.988C304.425 75.2032 313.15 79.7018 318.818 88.5739C324.487 97.4574 327.088 108.056 327.475 118.587C327.588 121.802 327.475 125.164 325.941 127.982C324.044 131.469 320.113 133.844 320.591 138.456C320.761 140.137 320.397 141.875 319.318 143.181C316.739 146.305 313.161 143.761 311.423 141.08C307.708 135.354 306.879 128.288 306.152 121.507C305.629 116.69 305.118 111.76 306.186 107.023C306.765 104.444 307.799 101.979 308.242 99.3773C308.674 96.7759 308.413 93.8677 306.686 91.8797C306.402 91.5502 305.948 91.1526 305.38 90.7096C300.847 87.2221 294.758 86.4837 289.498 88.733C281.16 92.3 266.869 97.7528 262.87 95.0946C257.122 91.2776 255.634 88.6421 255.634 88.6421L252.805 92.0387Z" fill="black"/>
<path d="M237.333 225.019C236.458 226.234 224.042 230.358 219.327 238.208C214.613 246.058 209.955 281.296 209.955 281.296L206.956 304.493C212.864 313.843 220.782 326.214 229.199 334.938L237.333 225.019Z" fill="#844BFE"/>
<g opacity="0.3">
<path d="M330.633 259.042C331.155 263.768 331.689 268.55 333.314 273.026C334.938 277.491 337.79 281.694 341.959 284C343.697 284.966 345.673 285.602 347.128 286.954C348.695 288.408 349.479 290.521 350.899 292.122C352.546 293.985 354.932 295.019 357.272 295.86C364.213 298.325 371.063 299.495 378.424 299.234C378.652 296.803 378.663 287.874 378.89 285.443L330.633 259.042Z" fill="black"/>
</g>
<path d="M368.859 207.956C368.859 207.956 384.513 212.591 389.103 219.259C393.692 225.928 401.815 251.783 403.484 256.577C405.154 261.371 403.689 272.492 400.565 280.478C397.441 288.464 392.011 295.349 382.639 296.394C373.267 297.439 358.453 292.02 355.125 288.476C351.796 284.932 350.399 276.98 350.399 276.98C354.568 276.253 358.669 275.219 362.691 273.901" fill="#844BFE"/>
<path d="M362.679 273.89C362.679 273.901 362.611 273.924 362.486 273.98C362.327 274.037 362.134 274.105 361.896 274.196C361.373 274.378 360.589 274.639 359.555 274.946C357.488 275.559 354.421 276.4 350.422 277.138L350.547 276.957C350.899 278.729 351.399 280.671 352.149 282.705C352.523 283.716 352.955 284.761 353.5 285.772C354.057 286.783 354.705 287.806 355.602 288.623C356.499 289.441 357.613 290.1 358.772 290.714C359.93 291.338 361.168 291.884 362.452 292.406C365.031 293.44 367.814 294.338 370.768 295.042C373.721 295.723 376.857 296.235 380.106 296.246C380.924 296.28 381.73 296.178 382.548 296.132C383.355 295.996 384.184 295.928 384.99 295.701C386.615 295.337 388.205 294.724 389.693 293.872C392.692 292.213 395.226 289.623 397.157 286.59C399.111 283.557 400.542 280.115 401.587 276.525C402.405 273.765 403.007 270.97 403.394 268.198C403.791 265.426 403.984 262.654 403.803 259.962C403.7 258.61 403.45 257.338 402.985 256.077C402.564 254.805 402.144 253.544 401.735 252.294C400.906 249.806 400.088 247.364 399.293 244.99C397.679 240.241 396.089 235.754 394.499 231.585C392.874 227.438 391.363 223.553 389.466 220.293C388.535 218.657 387.274 217.374 385.933 216.34C384.616 215.272 383.252 214.42 381.946 213.67C379.333 212.182 376.959 211.137 375.005 210.319C373.051 209.512 371.506 208.944 370.45 208.57C369.95 208.388 369.552 208.251 369.257 208.149C368.984 208.058 368.848 208.002 368.848 207.99C368.848 207.979 368.995 208.013 369.268 208.092C369.575 208.183 369.972 208.308 370.484 208.456C371.552 208.797 373.108 209.319 375.084 210.103C377.061 210.887 379.458 211.921 382.105 213.386C383.423 214.125 384.809 214.977 386.16 216.044C387.524 217.078 388.864 218.407 389.818 220.077C391.772 223.372 393.306 227.257 394.953 231.403C396.566 235.572 398.179 240.059 399.804 244.808C400.61 247.182 401.428 249.625 402.269 252.112C402.689 253.362 403.11 254.612 403.53 255.884C403.996 257.145 404.28 258.542 404.382 259.917C404.575 262.677 404.382 265.483 403.984 268.278C403.587 271.084 402.985 273.901 402.155 276.695C401.088 280.331 399.645 283.818 397.645 286.919C395.68 290.021 393.067 292.679 389.966 294.383C388.432 295.258 386.785 295.882 385.115 296.257C384.286 296.485 383.434 296.564 382.605 296.7C381.764 296.746 380.924 296.848 380.106 296.814C376.788 296.791 373.619 296.269 370.643 295.564C367.666 294.849 364.86 293.929 362.27 292.872C360.975 292.338 359.726 291.782 358.556 291.134C357.386 290.509 356.261 289.828 355.307 288.964C354.364 288.09 353.705 287.022 353.148 285.988C352.592 284.943 352.16 283.886 351.796 282.853C351.069 280.785 350.581 278.831 350.24 277.036L350.206 276.889L350.365 276.866C354.364 276.184 357.431 275.389 359.51 274.832C360.521 274.548 361.305 274.321 361.873 274.162C362.123 274.094 362.316 274.037 362.475 273.992C362.611 273.89 362.679 273.878 362.679 273.89Z" fill="black"/>
<path d="M391.409 265.517C391.295 265.54 390.932 263.586 389.625 260.701C388.342 257.827 386.035 254.021 382.559 250.67C380.833 248.988 378.913 247.716 377.072 246.762C376.595 246.546 376.141 246.342 375.687 246.148C375.243 245.944 374.766 245.853 374.335 245.705C373.46 245.387 372.608 245.308 371.824 245.183C371.631 245.149 371.438 245.126 371.256 245.092C371.074 245.092 370.893 245.092 370.711 245.092C370.359 245.092 370.029 245.092 369.711 245.092C369.086 245.058 368.552 245.171 368.109 245.228C367.235 245.353 366.746 245.41 366.735 245.365C366.723 245.331 367.201 245.194 368.075 245.001C368.518 244.899 369.052 244.751 369.688 244.763C370.018 244.751 370.359 244.728 370.711 244.717C370.893 244.706 371.086 244.706 371.267 244.694C371.461 244.717 371.654 244.74 371.858 244.763C372.665 244.865 373.551 244.922 374.46 245.228C374.914 245.365 375.403 245.455 375.868 245.66C376.334 245.864 376.811 246.069 377.3 246.273C379.208 247.228 381.196 248.523 382.957 250.238C386.501 253.657 388.796 257.565 390 260.53C390.307 261.269 390.579 261.95 390.75 262.564C390.932 263.177 391.113 263.688 391.182 264.131C391.363 265.017 391.443 265.506 391.409 265.517Z" fill="black"/>
<path d="M399.951 251.465C399.826 251.51 399.395 249.454 397.589 246.694C395.816 243.979 392.431 240.582 387.614 239.139C382.809 237.674 378.14 238.128 374.88 238.435C373.324 238.617 372.029 238.776 370.983 238.901C370.063 239.014 369.552 239.06 369.541 239.014C369.529 238.969 370.029 238.855 370.938 238.674C371.847 238.492 373.165 238.253 374.812 238.015C378.072 237.594 382.809 237.06 387.762 238.56C390.227 239.31 392.386 240.571 394.078 242.013C395.794 243.445 397.032 245.035 397.918 246.455C398.804 247.887 399.304 249.147 399.588 250.045C399.895 250.954 399.974 251.465 399.951 251.465Z" fill="black"/>
<path d="M388.148 234.663C388.103 234.857 384.025 233.539 378.845 233.777C373.653 233.959 369.688 235.584 369.632 235.391C369.609 235.322 370.552 234.834 372.199 234.311C373.835 233.789 376.186 233.289 378.822 233.175C381.457 233.073 383.832 233.391 385.513 233.789C387.183 234.186 388.16 234.595 388.148 234.663Z" fill="black"/>
<path d="M362.816 211.864C362.907 211.875 362.679 213.466 362.498 216.022C362.316 218.589 362.225 222.145 362.577 226.053C362.895 229.801 363.577 233.175 364.179 235.618L363.77 235.754C363.304 234.436 362.941 233.38 362.702 232.63C362.463 231.892 362.35 231.471 362.384 231.46C362.429 231.449 362.611 231.835 362.918 232.551C363.225 233.266 363.656 234.311 364.167 235.606L363.759 235.743C363.054 233.3 362.304 229.915 361.986 226.121C361.634 222.179 361.782 218.578 362.077 215.999C362.225 214.715 362.384 213.682 362.532 212.966C362.679 212.25 362.77 211.864 362.816 211.864Z" fill="black"/>
<path d="M340.675 182.726C340.675 182.726 332.553 182.726 331.53 192.495C330.746 199.993 331.53 207.275 331.53 210.558C331.53 213.841 330.087 225.519 330.087 225.519C330.087 225.519 324.544 230.438 324.635 236.345C324.726 242.286 328.951 244.092 328.951 244.092C328.951 244.092 326.373 249.715 331.292 254.884C331.292 254.884 328.929 260.326 330.871 263.995C332.371 266.835 335.745 267.778 335.745 267.778C335.745 267.778 333.348 273.14 339.107 275.4C342.515 276.73 347.548 276.434 347.548 276.434L353.614 276.321L358.953 279.274C358.953 279.274 368.098 275.287 368.337 269.891C368.575 264.495 368.575 264.495 368.575 264.495C368.575 264.495 365.996 255.589 365.758 252.771C365.519 249.954 367.871 243.161 366.462 240.105C365.054 237.06 360.135 235.266 360.6 231.006C361.066 226.746 360.135 224.394 358.022 222.054C355.909 219.714 346.582 215.022 346.582 215.022C346.582 215.022 344.185 208.217 344.185 203.526C344.197 198.823 348.888 184.509 340.675 182.726Z" fill="#FFBF9D"/>
<path d="M346.151 216.783C346.196 216.851 345.333 217.408 343.901 218.237C342.47 219.078 340.482 220.191 338.267 221.395C336.051 222.599 334.018 223.667 332.541 224.405C331.064 225.144 330.122 225.575 330.088 225.496C330.053 225.428 330.917 224.871 332.337 224.031C333.768 223.19 335.756 222.077 337.971 220.872C340.187 219.668 342.209 218.612 343.697 217.862C345.174 217.135 346.116 216.703 346.151 216.783Z" fill="#FF9A6C"/>
<path d="M351.49 235.141C351.512 235.175 351.263 235.402 350.785 235.777C350.308 236.163 349.593 236.674 348.672 237.265C346.843 238.458 344.174 239.912 341.061 241.105C337.937 242.297 334.984 242.99 332.825 243.331C331.746 243.502 330.871 243.604 330.258 243.638C329.644 243.672 329.315 243.683 329.304 243.638C329.292 243.547 330.621 243.365 332.746 242.922C334.87 242.479 337.767 241.729 340.845 240.559C343.924 239.378 346.582 238.003 348.457 236.913C350.32 235.822 351.433 235.061 351.49 235.141Z" fill="#FF9A6C"/>
<path d="M358.465 229.302C358.612 229.347 358.306 230.392 357.34 231.267C356.386 232.142 355.318 232.346 355.284 232.198C355.227 232.039 356.102 231.619 356.943 230.824C357.806 230.051 358.306 229.233 358.465 229.302Z" fill="#FF9A6C"/>
<path d="M355.114 251.226C355.136 251.294 353.853 251.817 351.717 252.476C349.581 253.135 346.571 253.885 343.197 254.43C339.823 254.975 336.733 255.202 334.495 255.248C332.257 255.305 330.871 255.202 330.871 255.134C330.871 255.043 332.246 254.987 334.472 254.827C336.688 254.668 339.755 254.384 343.106 253.839C346.457 253.294 349.445 252.612 351.603 252.067C353.762 251.522 355.091 251.147 355.114 251.226Z" fill="#FF9A6C"/>
<path d="M362.543 249.875C362.464 249.829 362.816 249.204 363.168 248.136C363.52 247.069 363.815 245.524 363.611 243.831C363.406 242.138 362.759 240.696 362.168 239.753C361.577 238.799 361.089 238.276 361.157 238.208C361.203 238.151 361.805 238.571 362.52 239.514C363.225 240.446 363.997 241.957 364.213 243.763C364.429 245.569 364.043 247.216 363.577 248.284C363.088 249.363 362.6 249.92 362.543 249.875Z" fill="#FF9A6C"/>
<path d="M355.534 267.676C355.545 267.744 354.455 268.05 352.648 268.357C350.842 268.664 348.309 268.925 345.503 268.914C342.697 268.902 340.175 268.63 338.369 268.312C336.563 268.005 335.472 267.687 335.483 267.619C335.506 267.528 336.619 267.698 338.426 267.903C340.232 268.107 342.731 268.312 345.503 268.323C348.275 268.323 350.774 268.141 352.592 267.937C354.398 267.744 355.523 267.585 355.534 267.676Z" fill="#FF9A6C"/>
<path d="M341.118 203.639C341.152 203.707 340.754 204.003 339.993 204.275C339.244 204.548 338.108 204.741 336.881 204.594C335.654 204.446 334.597 203.991 333.927 203.548C333.257 203.105 332.939 202.719 332.984 202.662C333.086 202.515 334.631 203.753 336.949 204.003C339.255 204.31 341.05 203.48 341.118 203.639Z" fill="#FF9A6C"/>
<path d="M364.224 250.568C364.258 250.568 364.326 250.874 364.349 251.442C364.372 252.01 364.292 252.839 364.065 253.839C363.849 254.839 363.474 255.986 363.111 257.247C362.77 258.508 362.441 259.939 362.691 261.382C362.884 262.814 363.963 263.984 364.133 265.449C364.326 266.88 363.758 268.096 363.236 268.959C362.691 269.834 362.157 270.459 361.77 270.868C361.384 271.277 361.146 271.493 361.123 271.459C361.032 271.39 361.907 270.459 362.884 268.744C363.338 267.892 363.804 266.755 363.599 265.517C363.463 264.279 362.373 263.12 362.111 261.473C361.839 259.86 362.225 258.36 362.6 257.088C362.997 255.804 363.406 254.691 363.668 253.726C364.236 251.817 364.122 250.568 364.224 250.568Z" fill="#FF9A6C"/>
<path d="M367.28 257.702C367.314 257.69 367.462 258.065 367.666 258.769C367.871 259.462 368.143 260.485 368.405 261.768C368.655 263.052 368.905 264.586 368.95 266.324C368.984 268.051 368.814 270.027 367.928 271.89C367.019 273.719 365.701 275.162 364.44 276.343C363.168 277.513 361.907 278.445 360.828 279.172C359.748 279.899 358.851 280.444 358.215 280.808C357.579 281.16 357.215 281.342 357.192 281.308C357.147 281.228 358.499 280.376 360.589 278.843C361.623 278.07 362.838 277.127 364.065 275.957C365.281 274.776 366.542 273.378 367.394 271.652C368.223 269.925 368.416 268.039 368.405 266.347C368.393 264.654 368.189 263.132 367.996 261.848C367.564 259.281 367.189 257.724 367.28 257.702Z" fill="black"/>
<path d="M281.569 219.884C281.546 219.918 281.08 219.566 280.251 218.896C279.354 218.157 278.195 217.192 276.809 216.044C276.082 215.431 275.287 214.761 274.446 214.056C274.026 213.704 273.594 213.329 273.106 213.091C272.617 212.852 272.072 212.784 271.583 213.034C270.607 213.545 269.948 214.806 269.107 215.851C268.3 216.942 267.46 218.067 266.608 219.225C265.233 221.066 263.915 222.826 262.7 224.462L261.962 225.439L262.2 224.235C262.995 220.123 264.109 216.692 265.029 214.329C265.483 213.148 265.892 212.216 266.187 211.591C266.483 210.967 266.665 210.637 266.687 210.648C266.721 210.66 266.596 211.012 266.358 211.66C266.119 212.307 265.767 213.25 265.358 214.443C264.54 216.84 263.507 220.259 262.757 224.337L262.257 224.121C263.472 222.486 264.779 220.713 266.142 218.873C267.005 217.726 267.846 216.601 268.653 215.511C269.062 214.965 269.459 214.431 269.857 213.909C270.266 213.386 270.72 212.852 271.356 212.546C272.004 212.216 272.788 212.33 273.344 212.625C273.912 212.92 274.355 213.318 274.776 213.682C275.594 214.409 276.366 215.09 277.082 215.726C278.422 216.931 279.535 217.942 280.399 218.714C281.171 219.441 281.592 219.861 281.569 219.884Z" fill="black"/>
<path d="M329.531 210.285C329.542 210.296 329.394 210.433 329.088 210.683C328.724 210.967 328.281 211.307 327.747 211.728C326.498 212.671 324.805 213.943 322.738 215.499C318.409 218.68 312.536 223.008 306.027 227.802L305.777 227.984L305.607 227.723C305.47 227.518 305.334 227.291 305.198 227.075C302.119 222.213 299.245 217.68 296.814 213.829L297.121 213.932C293.111 215.522 289.953 217.271 287.806 218.578C286.726 219.225 285.908 219.771 285.34 220.134C284.772 220.498 284.477 220.691 284.454 220.668C284.443 220.645 284.716 220.418 285.25 220.009C285.783 219.6 286.59 219.021 287.646 218.328C289.759 216.953 292.895 215.124 296.928 213.466L297.121 213.386L297.234 213.568C299.688 217.396 302.585 221.918 305.698 226.757C305.834 226.984 305.982 227.2 306.106 227.404L305.686 227.325C312.241 222.588 318.148 218.316 322.51 215.17C324.623 213.682 326.35 212.455 327.622 211.557C328.19 211.171 328.656 210.853 329.031 210.603C329.349 210.364 329.519 210.262 329.531 210.285Z" fill="black"/>
<path d="M227.575 255.464C227.598 255.464 227.62 255.736 227.632 256.27C227.643 256.85 227.666 257.622 227.7 258.565C227.734 260.633 227.791 263.507 227.859 267.017C227.995 274.151 228.279 284.011 228.654 294.906C229.029 305.8 229.245 315.672 229.268 322.806C229.279 326.373 229.268 329.27 229.233 331.269C229.211 332.223 229.199 332.984 229.188 333.564C229.165 334.086 229.154 334.37 229.131 334.37C229.108 334.37 229.086 334.098 229.074 333.564C229.063 332.984 229.04 332.212 229.006 331.269C228.972 329.201 228.915 326.339 228.847 322.817C228.711 315.683 228.427 305.823 228.052 294.928C227.677 284.034 227.461 274.174 227.439 267.028C227.427 263.461 227.439 260.564 227.473 258.565C227.495 257.611 227.507 256.85 227.518 256.27C227.541 255.736 227.564 255.464 227.575 255.464Z" fill="black"/>
<path d="M281.944 358.067C281.933 358.067 281.91 357.954 281.887 357.738C281.864 357.488 281.819 357.17 281.773 356.772C281.683 355.875 281.569 354.637 281.41 353.057C281.092 349.831 280.728 345.151 280.365 339.369C279.99 333.586 279.695 326.691 279.49 319.023C279.32 311.355 279.286 302.926 279.467 294.088C279.672 285.238 280.081 276.82 280.581 269.164C281.115 261.519 281.717 254.634 282.33 248.875C282.944 243.115 283.512 238.458 283.966 235.243C284.193 233.675 284.364 232.437 284.488 231.551C284.545 231.153 284.602 230.847 284.636 230.597C284.67 230.381 284.693 230.267 284.704 230.267C284.716 230.267 284.716 230.381 284.693 230.597C284.67 230.847 284.636 231.165 284.602 231.562C284.5 232.448 284.364 233.698 284.182 235.266C283.796 238.481 283.296 243.149 282.739 248.909C282.171 254.668 281.614 261.553 281.115 269.198C280.649 276.843 280.251 285.261 280.047 294.099C279.865 302.937 279.888 311.355 280.024 319.012C280.194 326.668 280.444 333.564 280.762 339.346C281.069 345.128 281.376 349.808 281.614 353.046C281.717 354.625 281.808 355.875 281.864 356.772C281.887 357.17 281.898 357.488 281.91 357.738C281.955 357.954 281.944 358.067 281.944 358.067Z" fill="black"/>
<path d="M248.091 172.127C248.091 172.127 247.693 172.411 246.887 172.933C246.08 173.456 244.887 174.228 243.331 175.239C241.775 176.25 239.969 177.693 237.765 179.295C236.674 180.113 235.595 181.101 234.379 182.089C233.777 182.589 233.164 183.112 232.528 183.646C231.903 184.191 231.301 184.805 230.653 185.407C225.485 190.212 219.623 196.664 214.227 205.128C213.568 206.195 212.886 207.275 212.205 208.377C211.489 209.467 210.944 210.671 210.285 211.83C209.671 213.023 208.979 214.193 208.388 215.442C207.82 216.703 207.229 217.976 206.638 219.271C206.354 219.918 206.025 220.566 205.764 221.236C205.502 221.906 205.252 222.588 204.991 223.269C204.48 224.644 203.923 226.019 203.423 227.427C202.583 230.313 201.526 233.209 200.89 236.311C199.311 242.422 198.448 249.011 198.096 255.884C197.698 262.757 198.107 269.959 199.288 277.286C201.685 291.907 207.445 307.129 217.249 320.659C226.927 334.234 240.605 346.037 257.02 353.796C273.412 361.6 292.588 364.974 311.741 362.998C330.917 361.01 348.888 353.455 363.281 342.425C366.905 339.698 370.245 336.665 373.437 333.564C374.21 332.757 374.971 331.962 375.743 331.155C376.516 330.36 377.266 329.554 377.981 328.702C378.708 327.872 379.424 327.032 380.14 326.202C380.821 325.339 381.492 324.476 382.173 323.624C387.569 316.751 391.829 309.265 395.203 301.642C398.566 294.008 400.792 286.113 402.155 278.343C402.86 274.458 403.246 270.573 403.507 266.744C403.632 264.836 403.621 262.927 403.689 261.041C403.655 259.156 403.553 257.293 403.484 255.43C403.45 254.498 403.416 253.578 403.371 252.658C403.314 251.738 403.166 250.84 403.064 249.931C402.848 248.125 402.632 246.33 402.417 244.547C402.133 242.786 401.724 241.048 401.394 239.333C401.042 237.617 400.747 235.89 400.213 234.255C399.736 232.596 399.27 230.96 398.793 229.336C398.588 228.518 398.293 227.734 397.986 226.95C397.691 226.166 397.395 225.394 397.111 224.621C396.509 223.088 396.01 221.52 395.339 220.055C394.658 218.589 393.976 217.146 393.306 215.715C387.819 204.332 380.776 195.131 373.71 188.031C366.61 180.908 359.476 175.921 353.455 172.252C351.921 171.377 350.479 170.536 349.115 169.764C348.445 169.355 347.764 169.037 347.093 168.719C346.435 168.401 345.798 168.105 345.185 167.81C343.958 167.219 342.822 166.685 341.788 166.185C340.766 165.663 339.755 165.368 338.903 165.015C337.176 164.345 335.858 163.834 334.95 163.482C334.064 163.13 333.609 162.937 333.609 162.937C333.609 162.937 334.075 163.096 334.972 163.425C335.881 163.766 337.21 164.254 338.948 164.902C339.812 165.254 340.823 165.538 341.856 166.049C342.902 166.538 344.038 167.072 345.276 167.651C345.889 167.935 346.537 168.242 347.196 168.548C347.866 168.855 348.559 169.173 349.229 169.582C350.592 170.355 352.046 171.184 353.591 172.059C359.635 175.717 366.814 180.681 373.96 187.804C381.071 194.904 388.171 204.117 393.703 215.545C394.374 216.976 395.055 218.43 395.748 219.896C396.43 221.361 396.93 222.94 397.543 224.474C397.839 225.246 398.134 226.03 398.429 226.814C398.736 227.598 399.031 228.382 399.236 229.211C399.713 230.835 400.179 232.482 400.667 234.141C401.201 235.788 401.508 237.515 401.871 239.242C402.212 240.968 402.621 242.706 402.905 244.479C403.121 246.262 403.348 248.068 403.564 249.886C403.666 250.795 403.814 251.704 403.871 252.624C403.905 253.544 403.95 254.475 403.984 255.407C404.052 257.27 404.155 259.144 404.2 261.041C404.143 262.939 404.143 264.847 404.018 266.767C403.768 270.607 403.382 274.514 402.678 278.422C401.315 286.238 399.077 294.167 395.714 301.858C392.34 309.526 388.058 317.058 382.639 323.965C381.957 324.828 381.276 325.691 380.594 326.555C379.867 327.384 379.151 328.225 378.424 329.065C377.709 329.917 376.959 330.735 376.175 331.53C375.403 332.337 374.63 333.143 373.858 333.95C370.643 337.063 367.291 340.118 363.645 342.868C349.184 353.978 331.11 361.566 311.821 363.566C292.565 365.565 273.276 362.168 256.793 354.307C240.275 346.491 226.541 334.62 216.817 320.965C206.979 307.356 201.197 292.043 198.811 277.354C197.63 269.993 197.232 262.768 197.641 255.85C198.005 248.943 198.891 242.332 200.481 236.197C201.129 233.085 202.197 230.176 203.049 227.291C203.56 225.871 204.105 224.496 204.628 223.122C204.889 222.44 205.15 221.759 205.411 221.077C205.684 220.407 206.002 219.759 206.298 219.112C206.888 217.817 207.479 216.533 208.058 215.272C208.649 214.022 209.353 212.841 209.978 211.648C210.637 210.478 211.194 209.274 211.909 208.183C212.602 207.081 213.284 205.991 213.943 204.934C219.384 196.46 225.291 190.007 230.494 185.225C231.142 184.623 231.755 184.009 232.38 183.464C233.028 182.93 233.641 182.408 234.255 181.908C235.47 180.919 236.572 179.942 237.663 179.125C239.878 177.545 241.695 176.114 243.274 175.114C244.842 174.126 246.046 173.365 246.864 172.854C247.671 172.365 248.091 172.127 248.091 172.127Z" fill="black"/>
</svg>
