<svg width="45" height="45" viewBox="0 0 45 45" fill="none" xmlns="http://www.w3.org/2000/svg">
<path d="M34.4302 15.9494C34.602 15.4025 34.4302 15 33.6041 15H30.8706C30.1744 15 29.8542 15.3456 29.6825 15.7306C29.6825 15.7306 28.2902 18.9287 26.3224 21.0025C25.6866 21.6019 25.3942 21.7944 25.0461 21.7944C24.8744 21.7944 24.6099 21.6019 24.6099 21.055V15.9494C24.6099 15.2931 24.415 15 23.8395 15H19.5419C19.1056 15 18.8457 15.3062 18.8457 15.5906C18.8457 16.2119 19.8296 16.3562 19.9317 18.1062V21.9038C19.9317 22.735 19.7739 22.8881 19.4259 22.8881C18.4977 22.8881 16.2421 19.6769 14.9055 16.0019C14.6364 15.2888 14.3718 15 13.671 15H10.9375C10.1578 15 10 15.3456 10 15.7306C10 16.4131 10.9282 19.8038 14.3208 24.2838C16.5809 27.3419 19.7647 29 22.6607 29C24.401 29 24.6145 28.6325 24.6145 27.9981C24.6145 25.0756 24.4567 24.8 25.3292 24.8C25.733 24.8 26.4291 24.9925 28.0535 26.4669C29.9099 28.2169 30.2162 29 31.2558 29H33.9893C34.769 29 35.1635 28.6325 34.9361 27.9062C34.4163 26.3794 30.9031 23.2381 30.7453 23.0281C30.3415 22.5381 30.4575 22.3194 30.7453 21.8819C30.7499 21.8775 34.0868 17.45 34.4302 15.9494Z" fill="white"/>
</svg>
